<svg xmlns="http://www.w3.org/2000/svg" width="45.796" height="45.796" viewBox="0 0 45.796 45.796">
  <g id="vuesax_bold_discount-shape" data-name="vuesax/bold/discount-shape" transform="translate(-364 -316)">
    <g id="discount-shape" transform="translate(364 316)">
      <path id="Vector" d="M0,0H45.8V45.8H0Z" fill="none" opacity="0"/>
      <path id="Vector-2" data-name="Vector" d="M37.257,16.916l-2.9-2.9a3.521,3.521,0,0,1-.9-2.156V7.738a3.062,3.062,0,0,0-3.053-3.053H26.3a3.521,3.521,0,0,1-2.156-.9l-2.9-2.9a3.064,3.064,0,0,0-4.312,0L14,3.788a3.432,3.432,0,0,1-2.156.9h-4.1A3.062,3.062,0,0,0,4.685,7.738v4.1A3.521,3.521,0,0,1,3.788,14l-2.9,2.9a3.064,3.064,0,0,0,0,4.312l2.9,2.9a3.521,3.521,0,0,1,.9,2.156v4.1a3.062,3.062,0,0,0,3.053,3.053h4.1a3.521,3.521,0,0,1,2.156.9l2.9,2.9a3.064,3.064,0,0,0,4.312,0l2.9-2.9a3.521,3.521,0,0,1,2.156-.9h4.1a3.062,3.062,0,0,0,3.053-3.053v-4.1a3.521,3.521,0,0,1,.9-2.156l2.9-2.9A2.974,2.974,0,0,0,37.257,16.916ZM11.439,13.348a1.908,1.908,0,1,1,1.908,1.908A1.914,1.914,0,0,1,11.439,13.348Zm2.919,12.46a1.428,1.428,0,0,1-2.023,0,1.44,1.44,0,0,1,0-2.023L23.785,12.336a1.43,1.43,0,1,1,2.023,2.023Zm10.438.9A1.908,1.908,0,1,1,26.686,24.8,1.9,1.9,0,0,1,24.8,26.7Z" transform="translate(3.826 3.826)" fill="#ff3c2b"/>
      <rect id="Rectangle_8615" data-name="Rectangle 8615" width="23" height="24" transform="translate(12 11)" fill="#ff3c2b"/>
      <text id="_4" data-name="4" transform="translate(23 26)" fill="#fff" font-size="16" font-family="Raleway-SemiBold, Raleway" font-weight="600"><tspan x="-4" y="0">4</tspan></text>
    </g>
  </g>
</svg>
