<svg xmlns="http://www.w3.org/2000/svg" width="43.07" height="43.07" viewBox="0 0 43.07 43.07">
  <g id="Group_42" data-name="Group 42" transform="translate(-1.419 -1.501)">
    <g id="Group_43" data-name="Group 43">
      <path id="Path_28" data-name="Path 28" d="M32.487,206.215c.5,0,1-.006,1.5,0,.556.009.811.272.826.832a6.107,6.107,0,0,1-6.138,6.339q-5.338.017-10.675,0a6.1,6.1,0,0,1-6.158-6.318c.011-.588.263-.847.848-.854.492-.006.984,0,1.466,0-1.846-5.222-.829-9.623,3.845-12.786a9.605,9.605,0,0,1,11.193.356c4.211,3.249,5.092,7.488,3.289,12.43m-19.175,1.452a4.638,4.638,0,0,0,4.677,4.285c3.557.013,7.114.006,10.67,0a5.593,5.593,0,0,0,.935-.088,4.6,4.6,0,0,0,3.736-4.192H27.544c.023.126.043.228.06.33a2.132,2.132,0,0,1-2,2.505c-1.508.038-3.019.028-4.528,0a2.05,2.05,0,0,1-1.963-1.611,7.434,7.434,0,0,1-.068-1.232Zm4.236-1.452a7.252,7.252,0,0,1,.909-9.574,7.165,7.165,0,0,1,8.9-.667,6.934,6.934,0,0,1,2.8,3.73,7.208,7.208,0,0,1-1.055,6.511c.492,0,.91-.019,1.326.006a.507.507,0,0,0,.548-.338,8.606,8.606,0,0,0-15.019-8.394,8.359,8.359,0,0,0-.253,8.389.623.623,0,0,0,.4.321c.458.041.923.015,1.444.015m2.953,0c.978,0,1.854.007,2.73-.008a.494.494,0,0,0,.323-.185q2.441-3.1,4.861-6.21a.476.476,0,0,0,.051-.429c-.366-.586-.766-1.15-1.2-1.781L20.5,206.215m5.569-9.41c-.555-.182-1.04-.356-1.536-.491a.437.437,0,0,0-.351.165q-2.926,3.876-5.829,7.77a.441.441,0,0,0-.058.384c.21.371.46.719.732,1.131l7.041-8.958m-3.543-.523a5.583,5.583,0,0,0-4.822,6.427l4.822-6.427m.759,12.8c.688,0,1.376,0,2.063,0,.526,0,.849-.283.849-.717s-.322-.713-.85-.715q-2.018-.007-4.037,0c-.53,0-.848.279-.848.716s.321.712.849.716c.658.006,1.316,0,1.974,0m1.932-2.87a12.969,12.969,0,0,1,1.359.01,1.078,1.078,0,0,0,1-.444,5.409,5.409,0,0,0,1.4-4.337l-3.752,4.771" transform="translate(-10.425 -168.826)"/>
      <path id="Path_29" data-name="Path 29" d="M263.005,58.751c0-2.287.047-4.575-.022-6.86a21.535,21.535,0,0,0-.453-3.181,61.194,61.194,0,0,1-.964-9.981,2.409,2.409,0,0,0-.163-.82c-.647-1.653-1.314-3.3-1.972-4.948a2.685,2.685,0,0,1,1.189-3.62,9.676,9.676,0,0,1,10.637.075,2.64,2.64,0,0,1,1.11,3.425c-.672,1.708-1.362,3.409-2.037,5.116a1.722,1.722,0,0,0-.143.6,62.189,62.189,0,0,1-1.373,12.316,3.514,3.514,0,0,0-.064.71q-.005,7.242,0,14.484a2.868,2.868,0,1,1-5.735.082c-.016-2.466,0-4.933,0-7.4m1.269-21.344c-.171-.861-.341-1.709-.509-2.556a.747.747,0,0,1,.529-.978c.418-.09.761.173.87.687.176.832.337,1.667.518,2.5a1.57,1.57,0,0,0,.207.383,1.588,1.588,0,0,0,.181-.36c.181-.846.345-1.7.522-2.544A.725.725,0,1,1,268,34.83c-.094.483-.2.964-.295,1.447-.075.38-.142.762-.218,1.17.435,0,.794-.019,1.151.006.271.019.386-.09.482-.333.62-1.583,1.26-3.159,1.887-4.74a1.278,1.278,0,0,0-.615-1.819,8.3,8.3,0,0,0-9.034.012,1.276,1.276,0,0,0-.6,1.823c.51,1.29,1.028,2.578,1.542,3.866.493,1.234.493,1.234,1.825,1.181a1.234,1.234,0,0,0,.151-.036m3.213,12.956.938-5.74c-.612,0-1.133,0-1.653,0-.56,0-.894-.276-.892-.72s.332-.711.9-.714,1.153,0,1.776,0c.074-1.467.145-2.873.216-4.281h-5.752c0,.185-.008.346,0,.506.086,1.46.1,2.929.281,4.379.258,2.1.63,4.188.966,6.279.017.108.158.278.245.28.968.02,1.936.013,2.978.013M264.44,51.81v6.435q0,3.877,0,7.755a1.5,1.5,0,0,0,.481,1.206,1.345,1.345,0,0,0,1.541.249,1.421,1.421,0,0,0,.854-1.4q-.005-6.948,0-13.9c0-.113-.021-.226-.033-.346Z" transform="translate(-228.113 -24.457)"/>
      <path id="Path_30" data-name="Path 30" d="M216.263,198.185c0-2.381,0-4.742,0-7.1a2.56,2.56,0,0,1,.081-.707,1.565,1.565,0,0,1,1.938-1.081c.56.157,1.114.342,1.656.552a3.166,3.166,0,0,1,2.06,2.981c.012,1.778,0,3.557,0,5.356.6.116.727.517.725,1.059-.013,3.618-.006,7.236-.007,10.854,0,.824-.209,1.033-1.031,1.034q-2.6,0-5.2,0c-.7,0-.942-.238-.942-.941,0-3.663.006-7.326-.007-10.988,0-.535.157-.9.725-1.015M217,209.663h4.252v-7.12H217Zm3.556-11.459c0-1.882.03-3.729-.016-5.574a1.566,1.566,0,0,0-1.072-1.424c-.414-.167-.842-.3-1.266-.439-.471-.155-.5-.131-.5.379q0,3.335,0,6.67c0,.127.017.255.026.388ZM217,201.06h4.256v-1.379H217Z" transform="translate(-189.719 -166.566)"/>
      <path id="Path_31" data-name="Path 31" d="M145.048,16.1a4.447,4.447,0,0,1-.52.654,7.467,7.467,0,0,1-.887.6,4,4,0,0,0-1.585,1.775.805.805,0,0,1-.72.578.8.8,0,0,1-.757-.59,4.8,4.8,0,0,0-2.034-2.074c-.366-.231-.845-.4-.807-.968s.521-.622.9-.806a3.852,3.852,0,0,0,1.969-2.16c.177-.454.536-.685.887-.535a.97.97,0,0,1,.495.466,4.109,4.109,0,0,0,2.424,2.421c.234.094.39.384.633.635m-3.727,1.377,1.213-1.135-1.218-1.388-1.242,1.359,1.247,1.164" transform="translate(-121.236 -11.028)"/>
      <path id="Path_32" data-name="Path 32" d="M186.851,70.286a2.23,2.23,0,0,1-.357.461,7.465,7.465,0,0,1-.887.6,4.043,4.043,0,0,0-1.617,1.8.791.791,0,0,1-.728.566.774.774,0,0,1-.729-.563,4.855,4.855,0,0,0-2.1-2.132c-.357-.223-.8-.405-.756-.952.047-.525.5-.6.875-.779a3.736,3.736,0,0,0,1.946-2.064c.146-.369.326-.686.78-.675.43.01.6.318.739.67a3.738,3.738,0,0,0,2.192,2.168.86.86,0,0,1,.641.891m-4.834.042,1.246,1.159,1.234-1.155-1.215-1.339-1.265,1.335" transform="translate(-158.151 -58.584)"/>
      <path id="Path_33" data-name="Path 33" d="M117.318,109.847c-.284-.212-.572-.316-.653-.507a5.586,5.586,0,0,0-2.474-2.5,1.292,1.292,0,0,1-.4-.351.7.7,0,0,1,.426-1.069,3.835,3.835,0,0,0,1.93-1.526,6.361,6.361,0,0,0,.416-.838c.139-.313.364-.579.7-.5a1.033,1.033,0,0,1,.663.484,4.1,4.1,0,0,0,2.395,2.388c.673.265.716.928.114,1.35a8.552,8.552,0,0,0-1.21.839c-.465.468-.831,1.033-1.253,1.546-.185.225-.4.421-.662.685m1.162-3.511-1.213-1.392-1.242,1.362,1.244,1.16,1.211-1.13" transform="translate(-100.055 -90.258)"/>
    </g>
  </g>
</svg>
