<svg id="vuesax_outline_camera" data-name="vuesax/outline/camera" xmlns="http://www.w3.org/2000/svg" width="24" height="24" viewBox="0 0 24 24">
  <g id="camera">
    <path id="Vector" d="M15.749,21.5H5.269a4.4,4.4,0,0,1-4.74-4.46L.009,8.79a4.44,4.44,0,0,1,1.21-3.36A4.518,4.518,0,0,1,4.509,4a.886.886,0,0,0,.78-.49l.72-1.43A4.074,4.074,0,0,1,9.369,0h2.29a4.07,4.07,0,0,1,3.35,2.07l.72,1.46a.893.893,0,0,0,.78.47A4.518,4.518,0,0,1,19.8,5.43a4.454,4.454,0,0,1,1.21,3.36l-.52,8.26A4.361,4.361,0,0,1,15.749,21.5Zm-6.38-20a2.557,2.557,0,0,0-2.02,1.25l-.72,1.44A2.387,2.387,0,0,1,4.509,5.5a3.011,3.011,0,0,0-2.2.95,2.951,2.951,0,0,0-.8,2.24l.52,8.26A2.9,2.9,0,0,0,5.269,20h10.48a2.9,2.9,0,0,0,3.24-3.05l.52-8.26a2.994,2.994,0,0,0-3-3.19,2.406,2.406,0,0,1-2.12-1.29l-.73-1.46a2.539,2.539,0,0,0-2.01-1.24H9.369Z" transform="translate(1.491 1.25)" fill="#292d32"/>
    <path id="Vector-2" data-name="Vector" d="M3.75,1.5h-3A.755.755,0,0,1,0,.75.755.755,0,0,1,.75,0h3A.755.755,0,0,1,4.5.75.755.755,0,0,1,3.75,1.5Z" transform="translate(9.75 7.25)" fill="#292d32"/>
    <path id="Vector-3" data-name="Vector" d="M4,8A4,4,0,1,1,8,4,4,4,0,0,1,4,8ZM4,1.5A2.5,2.5,0,1,0,6.5,4,2.5,2.5,0,0,0,4,1.5Z" transform="translate(8 10.75)" fill="#292d32"/>
    <path id="Vector-4" data-name="Vector" d="M0,0H24V24H0Z" fill="none" opacity="0"/>
  </g>
</svg>
