<svg xmlns="http://www.w3.org/2000/svg" width="39" height="39" viewBox="0 0 39 39">
  <g id="vuesax_outline_buildings" data-name="vuesax/outline/buildings" transform="translate(-364 -188)">
    <g id="buildings" transform="translate(364 188)">
      <path id="Vector" d="M19.094,25.188h-13C2.161,25.188,0,23.026,0,19.094v-13C0,2.161,2.161,0,6.094,0h8.125a1.228,1.228,0,0,1,1.219,1.219V19.094c0,2.568,1.089,3.656,3.656,3.656a1.219,1.219,0,0,1,0,2.438Zm-13-22.75c-2.567,0-3.656,1.089-3.656,3.656v13c0,2.568,1.089,3.656,3.656,3.656h7.8A6.921,6.921,0,0,1,13,19.094V2.438Z" transform="translate(2.031 11.781)" fill="#141212"/>
      <path id="Vector-2" data-name="Vector" d="M9.344,8.938H1.219A1.228,1.228,0,0,1,0,7.719V4.469A4.466,4.466,0,0,1,4.469,0H9.522a1.225,1.225,0,0,1,.959.471,1.24,1.24,0,0,1,.211,1.056,4.986,4.986,0,0,0-.13,1.316V7.719A1.228,1.228,0,0,1,9.344,8.938ZM2.438,6.5H8.125V2.438H4.469A2.032,2.032,0,0,0,2.438,4.469Z" transform="translate(6.906 5.281)" fill="#141212"/>
      <path id="Vector-3" data-name="Vector" d="M1.219,10.563A1.228,1.228,0,0,1,0,9.344V1.219A1.228,1.228,0,0,1,1.219,0,1.228,1.228,0,0,1,2.438,1.219V9.344A1.228,1.228,0,0,1,1.219,10.563Z" transform="translate(21.531 11.781)" fill="#141212"/>
      <path id="Vector-4" data-name="Vector" d="M1.219,10.563A1.228,1.228,0,0,1,0,9.344V1.219A1.228,1.228,0,0,1,1.219,0,1.228,1.228,0,0,1,2.438,1.219V9.344A1.228,1.228,0,0,1,1.219,10.563Z" transform="translate(28.031 11.781)" fill="#141212"/>
      <path id="Vector-5" data-name="Vector" d="M7.719,10.563h-6.5A1.228,1.228,0,0,1,0,9.344v-6.5A2.857,2.857,0,0,1,2.844,0h3.25A2.857,2.857,0,0,1,8.938,2.844v6.5A1.228,1.228,0,0,1,7.719,10.563ZM2.438,8.125H6.5V2.844a.4.4,0,0,0-.406-.406H2.844a.4.4,0,0,0-.406.406Z" transform="translate(21.531 26.406)" fill="#141212"/>
      <path id="Vector-6" data-name="Vector" d="M1.219,8.938A1.228,1.228,0,0,1,0,7.719v-6.5A1.228,1.228,0,0,1,1.219,0,1.228,1.228,0,0,1,2.438,1.219v6.5A1.228,1.228,0,0,1,1.219,8.938Z" transform="translate(8.531 19.906)" fill="#141212"/>
      <path id="Vector-7" data-name="Vector" d="M15.844,34.938H6.094C2.161,34.938,0,32.776,0,28.844V6.094C0,2.161,2.161,0,6.094,0h9.75c3.932,0,6.094,2.161,6.094,6.094v22.75C21.938,32.776,19.776,34.938,15.844,34.938Zm-9.75-32.5c-2.567,0-3.656,1.089-3.656,3.656v22.75c0,2.568,1.089,3.656,3.656,3.656h9.75c2.568,0,3.656-1.089,3.656-3.656V6.094c0-2.567-1.089-3.656-3.656-3.656Z" transform="translate(15.031 2.031)" fill="#141212"/>
      <path id="Vector-8" data-name="Vector" d="M0,0H39V39H0Z" fill="none" opacity="0"/>
    </g>
  </g>
</svg>
