<svg xmlns="http://www.w3.org/2000/svg" width="39" height="39" viewBox="0 0 39 39">
  <g id="layer1" transform="translate(-319.334 -440.743)">
    <g id="g3460" transform="translate(319.334 440.743)">
      <path id="path3462" d="M-129.508-14a17.33,17.33,0,0,0-12.3,5.1,17.32,17.32,0,0,0-5.1,12.3,17.316,17.316,0,0,0,5.1,12.292,17.347,17.347,0,0,0,12.3,5.1,17.333,17.333,0,0,0,12.3-5.1A17.316,17.316,0,0,0-112.122,3.4a17.32,17.32,0,0,0-5.09-12.3,17.317,17.317,0,0,0-12.3-5.1m0-2.107a19.5,19.5,0,0,1,19.5,19.5,19.5,19.5,0,0,1-19.5,19.5,19.5,19.5,0,0,1-19.5-19.5,19.5,19.5,0,0,1,19.5-19.5" transform="translate(149.009 16.103)" fill="#011b33"/>
    </g>
    <g id="g3464" transform="translate(324.322 455.026)">
      <path id="path3466" d="M-35.133-33.608a1.681,1.681,0,0,0-1.822-1.782h-.653v3.565h.635a1.677,1.677,0,0,0,1.84-1.783m11.622,1.283-4.813,3.79L-32.723-32a4.251,4.251,0,0,1-3.935,2.584h-3.765V-37.8h3.765a4.22,4.22,0,0,1,3.934,2.592l4.4-3.46,1.63,1.283-4.033,3.17.775.607,4.032-3.168,1.632,1.279-4.032,3.173.774.608,4.036-3.174V-37.8h2.926v5.939h2.918V-29.4h-5.844Zm9.55.464h2.917V-29.4H-16.89v-8.4h2.929Z" transform="translate(40.423 38.669)" fill="#011b33"/>
    </g>
  </g>
</svg>
