<svg id="edit-2" xmlns="http://www.w3.org/2000/svg" width="20" height="20" viewBox="0 0 20 20">
  <path id="Vector" d="M7.719,1.2.878,8.441A2.541,2.541,0,0,0,.319,9.633l-.308,2.7a1.273,1.273,0,0,0,1.558,1.475l2.683-.458a2.393,2.393,0,0,0,1.158-.625l6.842-7.242c1.183-1.25,1.717-2.675-.125-4.417C10.294-.659,8.9-.051,7.719,1.2Z" transform="translate(3.331 1.801)" fill="none" stroke="#141212" stroke-linecap="round" stroke-linejoin="round" stroke-width="1.2"/>
  <path id="Vector-2" data-name="Vector" d="M0,0A5.105,5.105,0,0,0,4.542,4.292" transform="translate(9.908 4.208)" fill="none" stroke="#141212" stroke-linecap="round" stroke-linejoin="round" stroke-width="1.2"/>
  <path id="Vector-3" data-name="Vector" d="M0,0H15" transform="translate(2.5 18.333)" fill="none" stroke="#141212" stroke-linecap="round" stroke-linejoin="round" stroke-width="1.2"/>
  <path id="Vector-4" data-name="Vector" d="M0,0H20V20H0Z" fill="none" opacity="0"/>
</svg>
