<svg xmlns="http://www.w3.org/2000/svg" width="52" height="52" viewBox="0 0 52 52">
  <g id="Group_17526" data-name="Group 17526" transform="translate(-21.187 -22.754)">
    <g id="Rectangle_17" data-name="Rectangle 17" transform="translate(26.187 27.754)" fill="#fbe7fd" stroke="#fef4ff" stroke-width="5">
      <rect width="42" height="42" rx="21" stroke="none"/>
      <rect x="-2.5" y="-2.5" width="47" height="47" rx="23.5" fill="none"/>
    </g>
    <g id="vuesax_outline_coin" data-name="vuesax/outline/coin" transform="translate(35.243 36.243)">
      <g id="coin">
        <path id="Vector" d="M3.662,7.232H2.132A2.156,2.156,0,0,1,.01,5.039a.771.771,0,0,1,.765-.765.771.771,0,0,1,.765.765.63.63,0,0,0,.592.663h1.53a.449.449,0,0,0,.418-.479c0-.357-.061-.377-.3-.459L1.326,3.907A1.821,1.821,0,0,1,0,2.009,1.988,1.988,0,0,1,1.948,0h1.53A2.156,2.156,0,0,1,5.6,2.193a.765.765,0,0,1-1.53,0,.63.63,0,0,0-.592-.663H1.948a.449.449,0,0,0-.418.479c0,.357.061.377.3.459l2.458.857A1.828,1.828,0,0,1,5.6,5.223,1.966,1.966,0,0,1,3.662,7.232Z" transform="translate(7.395 6.579)" fill="#af42ba"/>
        <path id="Vector-2" data-name="Vector" d="M.765,2.285A.771.771,0,0,1,0,1.52V.765A.771.771,0,0,1,.765,0,.771.771,0,0,1,1.53.765V1.52A.764.764,0,0,1,.765,2.285Z" transform="translate(9.435 12.342)" fill="#af42ba"/>
        <path id="Vector-3" data-name="Vector" d="M.765,2.326A.771.771,0,0,1,0,1.561v-.8A.771.771,0,0,1,.765,0,.771.771,0,0,1,1.53.765v.8A.771.771,0,0,1,.765,2.326Z" transform="translate(9.435 5.773)" fill="#af42ba"/>
        <path id="Vector-4" data-name="Vector" d="M8.915,17.83A8.915,8.915,0,1,1,17.83,8.915,8.924,8.924,0,0,1,8.915,17.83Zm0-16.29A7.38,7.38,0,1,0,16.3,8.915,7.4,7.4,0,0,0,8.915,1.54Z" transform="translate(1.275 1.265)" fill="#af42ba"/>
        <path id="Vector-5" data-name="Vector" d="M4.894,10.7A5.814,5.814,0,0,1,.141,8.233.768.768,0,0,1,1.4,7.346,4.283,4.283,0,1,0,7.383,1.389a.767.767,0,0,1,.9-1.244A5.825,5.825,0,0,1,4.894,10.7Z" transform="translate(12.467 12.473)" fill="#af42ba"/>
        <path id="Vector-6" data-name="Vector" d="M0,0H24.481V24.481H0Z" fill="none" opacity="0"/>
      </g>
    </g>
  </g>
</svg>
