<svg xmlns="http://www.w3.org/2000/svg" width="52.297" height="52.297" viewBox="0 0 52.297 52.297">
  <g id="Group_17523" data-name="Group 17523" transform="translate(-21.148 -27.852)">
    <g id="Path_30968" data-name="Path 30968" transform="translate(26.148 32.852)" fill="#ffd8d5">
      <path d="M 21.14838600158691 44.79677581787109 C 17.95697593688965 44.79677581787109 14.85970592498779 44.17117691040039 11.94259643554688 42.93734741210938 C 9.126265525817871 41.74613571166992 6.597476005554199 40.04134750366211 4.426455974578857 37.87032699584961 C 2.255435943603516 35.69930648803711 0.5506460070610046 33.17050552368164 -0.6405640244483948 30.35417556762695 C -1.874393939971924 27.43706512451172 -2.499994039535522 24.33979606628418 -2.499994039535522 21.14838600158691 C -2.499994039535522 17.95697593688965 -1.874393939971924 14.85970592498779 -0.6405640244483948 11.94260597229004 C 0.5506460070610046 9.126265525817871 2.255435943603516 6.597476005554199 4.426455974578857 4.426455974578857 C 6.597476005554199 2.255435943603516 9.126265525817871 0.5506460070610046 11.94260597229004 -0.6405640244483948 C 14.85970592498779 -1.874393939971924 17.95697593688965 -2.499994039535522 21.14838600158691 -2.499994039535522 C 24.33979606628418 -2.499994039535522 27.43706512451172 -1.874393939971924 30.35417556762695 -0.6405640244483948 C 33.17050552368164 0.5506460070610046 35.69930648803711 2.255435943603516 37.87032699584961 4.426455974578857 C 40.04134750366211 6.597476005554199 41.74613571166992 9.126265525817871 42.93734741210938 11.94259643554688 C 44.17117691040039 14.85970592498779 44.79677581787109 17.95697593688965 44.79677581787109 21.14838600158691 C 44.79677581787109 24.33979606628418 44.17117691040039 27.43706512451172 42.93734741210938 30.35417556762695 C 41.74613571166992 33.17050552368164 40.04134750366211 35.69930648803711 37.87032699584961 37.87032699584961 C 35.69930648803711 40.04134750366211 33.17050552368164 41.74613571166992 30.35417556762695 42.93734741210938 C 27.43706512451172 44.17117691040039 24.33979606628418 44.79677581787109 21.14838600158691 44.79677581787109 Z" stroke="none"/>
      <path d="M 21.14838600158691 -3.814697265625e-06 C 9.468456268310547 -3.814697265625e-06 -3.814697265625e-06 9.468456268310547 -3.814697265625e-06 21.14838600158691 C -3.814697265625e-06 32.82831573486328 9.468456268310547 42.2967643737793 21.14838600158691 42.2967643737793 C 32.82831573486328 42.2967643737793 42.2967643737793 32.82831573486328 42.2967643737793 21.14838600158691 C 42.2967643737793 9.468456268310547 32.82831573486328 -3.814697265625e-06 21.14838600158691 -3.814697265625e-06 M 21.14838600158691 -5.000003814697266 C 24.67619514465332 -5.000003814697266 28.10112571716309 -4.307952880859375 31.32805633544922 -2.943084716796875 C 34.44237518310547 -1.625835418701172 37.23827743530273 0.2588768005371094 39.63808441162109 2.658687591552734 C 42.03789520263672 5.058494567871094 43.9225959777832 7.854396820068359 45.23984527587891 10.96871566772461 C 46.60471725463867 14.19564628601074 47.2967643737793 17.62057685852051 47.2967643737793 21.14838600158691 C 47.2967643737793 24.67619514465332 46.60471725463867 28.10112571716309 45.23984527587891 31.32804489135742 C 43.9225959777832 34.44237518310547 42.03788757324219 37.23827743530273 39.63808441162109 39.63808441162109 C 37.23827743530273 42.03788757324219 34.44237518310547 43.9225959777832 31.32804489135742 45.23984527587891 C 28.10112571716309 46.60471725463867 24.67619514465332 47.2967643737793 21.14838600158691 47.2967643737793 C 17.62057685852051 47.2967643737793 14.19564628601074 46.60471725463867 10.96871566772461 45.23984527587891 C 7.854396820068359 43.9225959777832 5.058494567871094 42.03789520263672 2.658687591552734 39.63808441162109 C 0.2588768005371094 37.23827743530273 -1.625835418701172 34.44237518310547 -2.943084716796875 31.32805633544922 C -4.307952880859375 28.10112571716309 -5.000003814697266 24.67619514465332 -5.000003814697266 21.14838600158691 C -5.000003814697266 17.62057685852051 -4.307952880859375 14.19564628601074 -2.943084716796875 10.96871566772461 C -1.625835418701172 7.854396820068359 0.2588768005371094 5.058494567871094 2.658687591552734 2.658687591552734 C 5.058494567871094 0.2588768005371094 7.854396820068359 -1.625835418701172 10.96871566772461 -2.943084716796875 C 14.19564628601074 -4.307952880859375 17.62057685852051 -5.000003814697266 21.14838600158691 -5.000003814697266 Z" stroke="none" fill="#fff5f4"/>
    </g>
    <g id="vuesax_outline_people" data-name="vuesax/outline/people" transform="translate(35.055 41.758)">
      <g id="people">
        <path id="Vector" d="M3.5,6.784H3.367a3.143,3.143,0,1,1,.143.01C3.509,6.784,3.509,6.784,3.5,6.784ZM3.4,1.52a1.868,1.868,0,0,0-.071,3.734.494.494,0,0,1,.184,0A1.868,1.868,0,0,0,3.4,1.52Z" transform="translate(14.864 1.285)" fill="#ff3c2b"/>
        <path id="Vector-2" data-name="Vector" d="M1.858,6.658a6.736,6.736,0,0,1-1.194-.1.766.766,0,1,1,.265-1.51A4.973,4.973,0,0,0,4.4,4.434a1.4,1.4,0,0,0,.735-1.112,1.409,1.409,0,0,0-.735-1.1,4.991,4.991,0,0,0-3.5-.6A.758.758,0,0,1,.011,1,.765.765,0,0,1,.634.109,6.456,6.456,0,0,1,5.245.945,2.906,2.906,0,0,1,6.663,3.322,2.925,2.925,0,0,1,5.245,5.71,6.208,6.208,0,0,1,1.858,6.658Z" transform="translate(16.516 8.93)" fill="#ff3c2b"/>
        <path id="Vector-3" data-name="Vector" d="M3.305,6.794h-.02a3.392,3.392,0,1,1,.235,0l-.214-.765.071.765Zm.1-1.53a.99.99,0,0,1,.173.01,1.9,1.9,0,1,0-.265,0A.2.2,0,0,1,3.407,5.264Z" transform="translate(2.785 1.275)" fill="#ff3c2b"/>
        <path id="Vector-4" data-name="Vector" d="M4.805,6.658A6.208,6.208,0,0,1,1.418,5.71,2.922,2.922,0,0,1,0,3.322,2.92,2.92,0,0,1,1.418.945,6.456,6.456,0,0,1,6.029.109.765.765,0,0,1,6.652,1a.758.758,0,0,1-.888.622,5,5,0,0,0-3.5.6,1.384,1.384,0,0,0-.735,1.1,1.424,1.424,0,0,0,.735,1.112,4.973,4.973,0,0,0,3.469.612A.766.766,0,1,1,6,6.556,6.736,6.736,0,0,1,4.805,6.658Z" transform="translate(1.275 8.93)" fill="#ff3c2b"/>
        <path id="Vector-5" data-name="Vector" d="M3.5,6.784H3.367a3.143,3.143,0,1,1,.143.01C3.509,6.784,3.509,6.784,3.5,6.784ZM3.4,1.52a1.868,1.868,0,0,0-.071,3.734.494.494,0,0,1,.184,0A1.868,1.868,0,0,0,3.4,1.52Z" transform="translate(8.743 8.906)" fill="#ff3c2b"/>
        <path id="Vector-6" data-name="Vector" d="M4.815,6.672a6.118,6.118,0,0,1-3.4-.959A2.906,2.906,0,0,1,0,3.336,2.912,2.912,0,0,1,1.418.949a6.556,6.556,0,0,1,6.794,0A2.906,2.906,0,0,1,9.63,3.326,2.912,2.912,0,0,1,8.212,5.713,6.2,6.2,0,0,1,4.815,6.672ZM2.265,2.234A1.4,1.4,0,0,0,1.53,3.346a1.409,1.409,0,0,0,.735,1.1,5,5,0,0,0,5.091,0A1.4,1.4,0,0,0,8.09,3.336a1.409,1.409,0,0,0-.735-1.1A5.024,5.024,0,0,0,2.265,2.234Z" transform="translate(7.427 16.547)" fill="#ff3c2b"/>
        <path id="Vector-7" data-name="Vector" d="M0,0H24.484V24.484H0Z" fill="none" opacity="0"/>
      </g>
    </g>
  </g>
</svg>
