<svg xmlns="http://www.w3.org/2000/svg" width="52" height="53" viewBox="0 0 52 53">
  <g id="Group_17525" data-name="Group 17525" transform="translate(-21.187 -14.836)">
    <g id="Rectangle_17" data-name="Rectangle 17" transform="translate(26.187 19.836)" fill="#e5ecf8" stroke="#f4f8ff" stroke-width="5">
      <rect width="42" height="43" rx="21" stroke="none"/>
      <rect x="-2.5" y="-2.5" width="47" height="48" rx="23.5" fill="none"/>
    </g>
    <g id="vuesax_outline_strongbox-2" data-name="vuesax/outline/strongbox-2" transform="translate(35.282 29.282)">
      <g id="strongbox-2">
        <path id="Vector" d="M13.98,21.86H7.88C2.359,21.86,0,19.5,0,13.98V7.88C0,2.359,2.359,0,7.88,0h6.1c5.521,0,7.88,2.359,7.88,7.88v6.1C21.86,19.5,19.5,21.86,13.98,21.86ZM7.88,1.525c-4.687,0-6.355,1.667-6.355,6.355v6.1c0,4.687,1.667,6.355,6.355,6.355h6.1c4.687,0,6.355-1.667,6.355-6.355V7.88c0-4.687-1.667-6.355-6.355-6.355Z" transform="translate(1.271 1.271)" fill="#396bc1"/>
        <path id="Vector-2" data-name="Vector" d="M11.947,15.759H3.813A3.438,3.438,0,0,1,0,11.947V3.813A3.438,3.438,0,0,1,3.813,0h8.134a3.438,3.438,0,0,1,3.813,3.813v8.134A3.438,3.438,0,0,1,11.947,15.759ZM3.813,1.525c-1.606,0-2.288.681-2.288,2.288v8.134c0,1.606.681,2.288,2.288,2.288h8.134c1.606,0,2.288-.681,2.288-2.288V3.813c0-1.606-.681-2.288-2.288-2.288Z" transform="translate(4.321 4.321)" fill="#396bc1"/>
        <path id="Vector-3" data-name="Vector" d="M3.284,6.609H.763a.763.763,0,1,1,0-1.525H3.284a1.779,1.779,0,0,0,0-3.559H.763A.768.768,0,0,1,0,.763.768.768,0,0,1,.763,0H3.284a3.3,3.3,0,0,1,0,6.609Z" transform="translate(4.321 8.896)" fill="#396bc1"/>
        <path id="Vector-4" data-name="Vector" d="M3.813,1.525H.763A.768.768,0,0,1,0,.763.768.768,0,0,1,.763,0h3.05a.768.768,0,0,1,.763.763A.768.768,0,0,1,3.813,1.525Z" transform="translate(15.505 9.395)" fill="#396bc1"/>
        <path id="Vector-5" data-name="Vector" d="M3.813,1.525H.763A.768.768,0,0,1,0,.763.768.768,0,0,1,.763,0h3.05a.768.768,0,0,1,.763.763A.768.768,0,0,1,3.813,1.525Z" transform="translate(15.505 13.472)" fill="#396bc1"/>
        <path id="Vector-6" data-name="Vector" d="M1.017,2.03A1.012,1.012,0,0,1,.63,1.949a1.174,1.174,0,0,1-.336-.213A1.006,1.006,0,0,1,0,1.013,1.069,1.069,0,0,1,.295.291,1.034,1.034,0,0,1,1.4.078a.949.949,0,0,1,.336.213,1.069,1.069,0,0,1,.295.722,1.006,1.006,0,0,1-.295.722,1.174,1.174,0,0,1-.336.213A1.012,1.012,0,0,1,1.017,2.03Z" transform="translate(6.355 11.188)" fill="#396bc1"/>
        <path id="Vector-7" data-name="Vector" d="M0,0H24.4V24.4H0Z" fill="none" opacity="0"/>
      </g>
    </g>
  </g>
</svg>
