<svg xmlns="http://www.w3.org/2000/svg" width="48.252" height="42.304" viewBox="0 0 48.252 42.304">
  <g id="Group_48" data-name="Group 48" transform="translate(-16.926 -39.468)">
    <g id="Group_49" data-name="Group 49" transform="translate(17.169 39.718)">
      <path id="Path_37" data-name="Path 37" d="M22.048,60.192a4.554,4.554,0,0,1,3.876-4.15,5.739,5.739,0,0,1,.919-.048q4.61,0,9.22,0h.631v-.685q0-7.145,0-14.29c0-1.108.2-1.3,1.323-1.3H63.578c1.156,0,1.349.19,1.349,1.324V73.822c0,1.529,0,1.529-1.542,1.682,0,.959,0,1.926,0,2.894,0,.985-.229,1.219-1.2,1.222-.751,0-1.5-.017-2.254.006a1.083,1.083,0,0,1-1.177-.763c-.406-1.03-.877-2.035-1.3-3.059a.477.477,0,0,0-.527-.346q-5.122.015-10.245,0a.512.512,0,0,0-.553.319,3.084,3.084,0,0,1-1.788,1.594.415.415,0,0,0-.321.483q.017,1.126,0,2.254a1.3,1.3,0,0,1-1.332,1.38,5.742,5.742,0,0,1-1.48-.02,2.212,2.212,0,0,1-1.117-.606c-.858-.948-1.632-1.972-2.468-2.941a1.018,1.018,0,0,0-.671-.336q-5.1-.032-10.194,0a1.021,1.021,0,0,0-.674.332c-.826.956-1.628,1.932-2.415,2.92a1.625,1.625,0,0,1-1.419.661c-.375-.014-.752,0-1.127,0a1.327,1.327,0,0,1-1.443-1.432c-.015-.717-.014-1.434,0-2.151a.507.507,0,0,0-.366-.569,3.243,3.243,0,0,1-2.138-3.189c-.028-3.636-.011-7.273-.009-10.909a3.272,3.272,0,0,1,4.691-3.1.978.978,0,0,0,.181.045m41.226-18.8H51.668V64.152H63.274Zm-24.9-.009c-.014.152-.038.285-.038.418q0,6.967-.008,13.934a.5.5,0,0,0,.385.552,4.389,4.389,0,0,1,2.8,3.1c.072.26.109.53.167.82a1.723,1.723,0,0,0,.207-.071,3.238,3.238,0,0,1,4.632,2.788c.028.4,0,.81,0,1.232h3.422V41.38Zm-6.51,34.552c0-.011,0-.022,0-.033q5.736,0,11.472,0a1.262,1.262,0,0,0,1.194-.66,3.193,3.193,0,0,0,.363-1.35c.033-2.766.021-5.533.017-8.3,0-.886.022-1.776-.049-2.658a1.623,1.623,0,0,0-1.555-1.5A1.682,1.682,0,0,0,41.69,62.88a3.355,3.355,0,0,0-.023.562q0,4.15,0,8.3c0,.8-.266,1.058-1.076,1.058q-8.633,0-17.267,0c-1.083,0-1.293-.2-1.294-1.273,0-2.8.008-5.6-.011-8.4a1.631,1.631,0,0,0-1.57-1.69,1.7,1.7,0,0,0-1.63,1.708c-.015.392,0,.785,0,1.178q0,4.867,0,9.734A1.663,1.663,0,0,0,20.545,75.9c.324.015.648.031.972.031q5.174,0,10.347,0m8.1-9.253a1.076,1.076,0,0,0,.052-.2c0-2.03.03-4.061,0-6.09a2.79,2.79,0,0,0-2.807-2.75q-5.349-.03-10.7,0a2.774,2.774,0,0,0-2.781,2.715c-.031,2.063.006,4.128.017,6.191,0,.02.04.04.091.088a4.571,4.571,0,0,1,2.5-.486c3.5.009,7,0,10.494,0a5.5,5.5,0,0,1,3.138.526m23.289-.817H51.662V73.81H63.253ZM40.018,71.133c0-.52.012-.98,0-1.439A1.87,1.87,0,0,0,38.129,67.8q-6.275-.024-12.549,0a1.8,1.8,0,0,0-1.812,1.449,14.624,14.624,0,0,0-.016,1.885ZM46.59,73.8h3.366V65.855H46.59ZM59.1,75.483c.346.8.67,1.567,1.008,2.325a.317.317,0,0,0,.228.16c.455.015.912.008,1.37.008V75.483ZM39.514,77.6a21.163,21.163,0,0,1,1.359,1.675,1.223,1.223,0,0,0,1.49.526V77.6ZM21.359,79.87c.366-.025.827.083,1-.093.65-.653,1.207-1.4,1.837-2.158h-2.84Z" transform="translate(-17.169 -39.718)" fill="#141212" stroke="#141212" stroke-width="0.5"/>
      <path id="Path_48" data-name="Path 48" d="M278.967,102.473q0-1.97,0-3.94a3.671,3.671,0,0,1,.02-.51.745.745,0,0,1,.751-.7.754.754,0,0,1,.835.663,2.515,2.515,0,0,1,.032.509q0,3.991,0,7.982a2.65,2.65,0,0,1-.03.509.8.8,0,0,1-1.593-.062,5.718,5.718,0,0,1-.015-.613q0-1.919,0-3.838" transform="translate(-243.137 -89.437)" fill="#141212" stroke="#141212" stroke-width="0.5"/>
      <path id="Path_49" data-name="Path 49" d="M235.069,102.453c0-1.382,0-2.764,0-4.147,0-.657.292-1.021.806-1.027s.831.364.832,1.007q0,4.172,0,8.345c0,.643-.316,1.009-.837,1-.5-.009-.8-.361-.8-.979,0-1.4,0-2.8,0-4.2" transform="translate(-205.246 -89.401)" fill="#141212" stroke="#141212" stroke-width="0.5"/>
      <path id="Path_50" data-name="Path 50" d="M276.536,247.677c0,.374.014.749,0,1.123a.8.8,0,0,1-1.6.1,22.326,22.326,0,0,1-.006-2.4.781.781,0,0,1,.853-.71.8.8,0,0,1,.753.814c.017.357,0,.715,0,1.072" transform="translate(-239.626 -217.586)" fill="#141212" stroke="#141212" stroke-width="0.5"/>
      <path id="Path_51" data-name="Path 51" d="M240.566,247.672c0,.374.015.75,0,1.123a.786.786,0,0,1-.777.786.771.771,0,0,1-.833-.73c-.036-.781-.037-1.566,0-2.346a.784.784,0,0,1,.85-.715.8.8,0,0,1,.758.81c.017.357,0,.715,0,1.072" transform="translate(-208.575 -217.585)" fill="#141212" stroke="#141212" stroke-width="0.5"/>
    </g>
  </g>
</svg>
