<svg xmlns="http://www.w3.org/2000/svg" width="31.28" height="31.286" viewBox="0 0 31.28 31.286">
  <g id="vuesax_bold_instagram" data-name="vuesax/bold/instagram" transform="translate(-299.993)">
    <g id="instagram" transform="translate(299.993 0)">
      <path id="Vector" d="M22.2,0H9.091C3.4,0,0,3.395,0,9.089V22.182c0,5.71,3.4,9.1,9.091,9.1h13.1c5.7,0,9.091-3.395,9.091-9.089V9.089C31.3,3.395,27.9,0,22.2,0ZM15.648,21.712a6.069,6.069,0,1,1,6.071-6.069A6.076,6.076,0,0,1,15.648,21.712ZM24.911,7.634a1.806,1.806,0,0,1-.329.516,1.807,1.807,0,0,1-.516.329A1.549,1.549,0,0,1,22.36,8.15a1.806,1.806,0,0,1-.329-.516,1.474,1.474,0,0,1,0-1.189,1.615,1.615,0,0,1,.329-.516,1.562,1.562,0,0,1,1.408-.422.944.944,0,0,1,.3.094,1.185,1.185,0,0,1,.282.141,2.465,2.465,0,0,1,.235.188,1.615,1.615,0,0,1,.329.516,1.474,1.474,0,0,1,0,1.189Z" transform="translate(0 0)" fill="#fff"/>
      <path id="Vector-2" data-name="Vector" d="M0,0H31.267V31.258H0Z" transform="translate(31.28 31.272) rotate(180)" fill="none" opacity="0"/>
    </g>
  </g>
</svg>
