<svg xmlns="http://www.w3.org/2000/svg" width="46.689" height="57.155" viewBox="0 0 46.689 57.155">
  <g id="Group_64" data-name="Group 64" transform="translate(-4.99 0.108)">
    <g id="Group_65" data-name="Group 65">
      <path id="Path_55" data-name="Path 55" d="M186.006,7.459q0-2.653,0-5.307a2.537,2.537,0,0,1,.046-.6.751.751,0,0,1,.8-.59.721.721,0,0,1,.756.6,3.339,3.339,0,0,1,.054.483q0,5.5,0,11a1.924,1.924,0,0,1-.038.439.811.811,0,0,1-1.58,0,2.806,2.806,0,0,1-.04-.6q0-2.709,0-5.417" transform="translate(-158.494 -0.817)" fill="#141212" stroke="#141212" stroke-width="0.5"/>
      <path id="Path_56" data-name="Path 56" d="M112.254,45.488a.886.886,0,0,1-.576-.516c-1.185-2.309-2.342-4.634-3.5-6.96a.83.83,0,1,1,1.482-.731q1.752,3.477,3.477,6.969c.3.617-.063,1.226-.888,1.238" transform="translate(-92.081 -31.304)" fill="#141212" stroke="#141212" stroke-width="0.5"/>
      <path id="Path_57" data-name="Path 57" d="M245.192,37.076a.618.618,0,0,1,.139.694c-.058.133-.132.256-.18.352q-1.673,3.363-3.355,6.722c-.293.585-.731.782-1.2.56s-.59-.7-.3-1.281q1.7-3.411,3.409-6.816c.2-.4.522-.695.964-.531a1.482,1.482,0,0,1,.52.3" transform="translate(-204.625 -31.297)" fill="#141212" stroke="#141212" stroke-width="0.5"/>
      <path id="Path_64" data-name="Path 64" d="M80.871,123.69Q77.487,120,74.107,116.3a4.618,4.618,0,0,0-3.571-1.589H47.4a4.617,4.617,0,0,0-3.569,1.591c-2.259,2.484-4.534,4.953-6.8,7.429a3.6,3.6,0,0,0-.146,5.008q9.874,12.154,19.744,24.311a4.513,4.513,0,0,0,1.787,1.491h1.107a8.368,8.368,0,0,0,1.49-1.161q10.027-12.279,20.007-24.6a3.622,3.622,0,0,0-.148-5.095m-.836,1.549-.055.137h-.526c-3.213,0-6.427,0-9.64-.011l1.06-3.1c.012-.033.025-.065.037-.1.558-1.636,1.113-3.273,1.707-5.019l7.417,8.1M71.1,116.423l-.5,1.462-.622,1.832-1.639,4.81q-3.622-3.911-7.214-7.85a2.781,2.781,0,0,1-.179-.254Zm-4.291,8.914H51.127l7.843-8.556,7.843,8.556m-9.787-8.9-7.425,8.1-2.765-8.1Zm-11.705.706,2.791,8.184H37.82l7.5-8.184m11.133,33.045-18.769-23.1H48.711l1.785,5.226q2.937,8.62,5.873,17.24c.064.188.12.379.18.569l-.1.068m2.53,1.8c-.117-.306-.188-.475-.247-.649q-3.388-9.929-6.773-19.858l-1.5-4.393h17l-8.487,24.9m2.514-1.81-.121-.039c.315-.937.627-1.875.946-2.811q3.247-9.516,6.484-19.035l.005,0,.273-.8a.726.726,0,0,1,.808-.476c3.19.029,6.381.014,9.571.014h.6l.118.141-18.686,23" transform="translate(-30.626 -97.745)" fill="#141212" stroke="#141212" stroke-width="0.5"/>
    </g>
  </g>
</svg>
