<svg xmlns="http://www.w3.org/2000/svg" width="44.298" height="40.529" viewBox="0 0 44.298 40.529">
  <g id="Group_33" data-name="Group 33" transform="translate(0.302 -4.004)">
    <g id="Group_34" data-name="Group 34" transform="translate(0 4.253)">
      <path id="Path_20" data-name="Path 20" d="M0,38.547c.07-.289.124-.582.212-.866a5.7,5.7,0,0,1,4.083-3.991.676.676,0,0,0,.408-.338,18.119,18.119,0,0,1,8.188-9.868c.057-.033.108-.077.2-.142a6.425,6.425,0,0,1-4.278-5.967h2.555a3.837,3.837,0,0,0,1.655,3.057,4.264,4.264,0,0,0,2.888.642,6.561,6.561,0,0,1-1.2-3.7h2.545A3.8,3.8,0,0,0,21.235,21.1,18.189,18.189,0,0,1,38.975,33.224a.693.693,0,0,0,.537.506,5.68,5.68,0,0,1-.047,11,.591.591,0,0,0-.462.417,17.832,17.832,0,0,1-13.867,11.9A18.113,18.113,0,0,1,4.8,45.3a.849.849,0,0,0-.645-.611A5.571,5.571,0,0,1,.079,40.153,1.935,1.935,0,0,0,0,39.915V38.547M17.666,27.879c.009.131.016.216.021.3A4.2,4.2,0,0,0,26.064,28a4.169,4.169,0,0,0-4.192-4.337,14.747,14.747,0,0,0-6.911,1.62A15.341,15.341,0,0,0,6.762,35.5c-.12.459-.3.616-.766.587a3.2,3.2,0,0,0-2.065.548,3.131,3.131,0,0,0-1.253,3.417,3.167,3.167,0,0,0,2.962,2.3c.959.068.959.068,1.206.957a15.5,15.5,0,0,0,18.69,11.019A15.168,15.168,0,0,0,36.922,43.2c.236-.8.224-.8,1.037-.844.185-.009.37-.024.553-.046a3.132,3.132,0,0,0-.743-6.216c-.488,0-.665-.139-.79-.614a15.411,15.411,0,0,0-8.562-10.37c-.117-.056-.242-.1-.407-.162a6.837,6.837,0,0,1-1.894,8.172,6.756,6.756,0,0,1-7.677.56c-2.074-1.232-3.609-3.949-3.268-5.8Z" transform="translate(0 -17.376)" fill="#141212" stroke="#fff" stroke-linecap="round" stroke-linejoin="round" stroke-width="0.5"/>
      <path id="Path_21" data-name="Path 21" d="M139.672,259.193a4.67,4.67,0,0,0,7.978.007l2.184,1.291a7.2,7.2,0,0,1-12.363,0l2.2-1.3" transform="translate(-121.779 -231.591)" fill="#141212" stroke="#fff" stroke-linecap="round" stroke-linejoin="round" stroke-width="0.5"/>
      <path id="Path_22" data-name="Path 22" d="M92.836,180.278h-2.5a4.209,4.209,0,0,1,8.419-.005h-2.5c-.356-1.16-.864-1.64-1.721-1.635s-1.384.5-1.7,1.64" transform="translate(-80.024 -157.934)" fill="#141212" stroke="#fff" stroke-linecap="round" stroke-linejoin="round" stroke-width="0.5"/>
      <path id="Path_23" data-name="Path 23" d="M227.542,180.314h-2.447c-.407-1.206-.906-1.665-1.771-1.633s-1.382.548-1.643,1.632h-2.513a4.217,4.217,0,0,1,6.347-3.609,3.946,3.946,0,0,1,2.027,3.61" transform="translate(-194.151 -157.977)" fill="#141212" stroke="#fff" stroke-linecap="round" stroke-linejoin="round" stroke-width="0.5"/>
    </g>
  </g>
</svg>
