<svg xmlns="http://www.w3.org/2000/svg" width="39" height="39" viewBox="0 0 39 39">
  <g id="vuesax_outline_lamp-charge" data-name="vuesax/outline/lamp-charge" transform="translate(-556 -188)">
    <g id="lamp-charge" transform="translate(556 188)">
      <path id="Vector" d="M3.124,10.9a1.115,1.115,0,0,1-.6-.163,1.226,1.226,0,0,1-.455-1.658l1.381-2.4H2.084A2.06,2.06,0,0,1,.247,5.714a2.041,2.041,0,0,1,.081-2.08L2.067.612a1.215,1.215,0,1,1,2.112,1.2L2.8,4.235H4.164A2.06,2.06,0,0,1,6,5.194a2.041,2.041,0,0,1-.081,2.08L4.18,10.3A1.212,1.212,0,0,1,3.124,10.9Z" transform="translate(16.376 11.608)" fill="#141212"/>
      <path id="Vector-2" data-name="Vector" d="M18.525,30.034H9.571a3.027,3.027,0,0,1-2.226-.7,2.353,2.353,0,0,1-.553-1.852V26.037A15.073,15.073,0,0,1,0,14.044,14.065,14.065,0,0,1,17.225.346a13.878,13.878,0,0,1,9.393,7.264c3.526,7.1.13,14.788-5.3,18.444v1.219a2.593,2.593,0,0,1-.634,2.015A2.98,2.98,0,0,1,18.525,30.034ZM9.214,27.581c.081,0,.195.016.341.016h8.97a1.479,1.479,0,0,0,.341-.032v-2.21a1.221,1.221,0,0,1,.585-1.04c4.81-2.909,8-9.555,4.956-15.649A11.392,11.392,0,0,0,16.673,2.7,11.722,11.722,0,0,0,6.744,4.977a11.581,11.581,0,0,0-4.339,9.067c0,4.517,3.12,8.418,6.208,10.286a1.205,1.205,0,0,1,.585,1.04v2.194C9.214,27.564,9.214,27.564,9.214,27.581Z" transform="translate(5.476 2.059)" fill="#141212"/>
      <path id="Vector-3" data-name="Vector" d="M12.612,3.246A1.237,1.237,0,0,1,12.27,3.2a19.348,19.348,0,0,0-10.709,0A1.234,1.234,0,0,1,.05,2.352,1.221,1.221,0,0,1,.9.841a21.973,21.973,0,0,1,12.041,0,1.227,1.227,0,0,1,.845,1.511A1.2,1.2,0,0,1,12.612,3.246Z" transform="translate(12.576 33.723)" fill="#141212"/>
      <path id="Vector-4" data-name="Vector" d="M0,0H39V39H0Z" fill="none" opacity="0"/>
    </g>
  </g>
</svg>
