<svg xmlns="http://www.w3.org/2000/svg" width="210.806" height="48" viewBox="0 0 210.806 48">
  <g id="procured_1" data-name="procured 1" transform="translate(-419.059 -342.578)">
    <g id="Group_17305" data-name="Group 17305" transform="translate(419.059 342.578)">
      <path id="Path_30942" data-name="Path 30942" d="M461.721,364.915a59.466,59.466,0,0,1-29.477-2.789c-1.54-.549-.829-1.485-.637-2.388.258-1.212.982-.768,1.7-.513,7.208,2.553,14.569,4.321,22.275,4.287a6.871,6.871,0,0,0,1.584-.127c-3.7-.931-7.409-1.765-11.007-3a57.087,57.087,0,0,1-10.948-5.046c-1.153-.695-1.216-1.311-.468-2.349,4.684-6.5,10.945-10.2,19-10.4,9.694-.242,17.037,3.943,21.876,12.353,1.379,2.4,3.65,3.236,6.014,4.045.4.137.917.026,1.2.79l-16.078-1.632c1.285,1.9,1.482,4.876,4.861,4.316A40.314,40.314,0,0,1,461.721,364.915Z" transform="translate(-427.627 -342.578)" fill="#fff"/>
      <path id="Path_30943" data-name="Path 30943" d="M453.2,438.328c-10.247,3.393-20.864-1.56-24.833-7.094,10.889-1.75,21.241-4.78,30.533-10.757a101.642,101.642,0,0,1-12.186,3.239c-7.806,1.443-15.519,1.513-22.971-1.741a17.743,17.743,0,0,1-4.681-2.929c2.532.59,4.975,1.348,7.5,1.816a48.859,48.859,0,0,0,16.456.071,87.842,87.842,0,0,0,24.862-8.1,3.456,3.456,0,0,1,1.877-.587,20.409,20.409,0,0,1-1.537,12.393A23.423,23.423,0,0,1,453.2,438.328Z" transform="translate(-419.059 -391.44)" fill="#fff"/>
    </g>
    <g id="Group_17304" data-name="Group 17304" transform="translate(493.903 355.119)">
      <path id="Path_30944" data-name="Path 30944" d="M617.576,567.02c-4.572.052-9,.081-13.42.169a3.018,3.018,0,0,1-2.672-1.262c-1.937-2.462-3.958-4.858-5.959-7.269-.534-.643-1-1.345-.589-2.157.355-.7,1.149-.376,1.759-.421.643-.047,1.294.009,1.939-.031a3.382,3.382,0,0,0,3.413-3.419,3.3,3.3,0,0,0-3.366-3.579c-1.041-.062-2.092.025-3.132-.047-1.292-.089-1.6.547-1.586,1.71.04,4.822.023,9.644.014,14.466,0,1.895-.231,2.054-2.04,2.005-1.054-.029-1.336-.493-1.331-1.478q.045-9.326,0-18.653c-.006-1.093.353-1.5,1.459-1.468,2.137.063,4.277,0,6.416.025a6.85,6.85,0,0,1,2.639,13.237l-.846.365,5.923,7.086a2.745,2.745,0,0,0,.267-1.672c.01-5.77.038-11.54-.019-17.31-.013-1.3.382-1.754,1.7-1.725q5,.111,10,0c1.358-.033,1.664.5,1.679,1.75.017,1.344-.5,1.733-1.757,1.7-2.236-.065-4.477.023-6.714-.026-1.106-.024-1.445.407-1.454,1.5-.031,3.878-.066,3.877,3.721,3.887,1.542,0,3.084.031,4.626.013,1.378-.016,1.241.935,1.273,1.847.032.943-.062,1.686-1.288,1.673-2.238-.023-4.478.047-6.714-.006-1.23-.029-1.721.439-1.608,1.666a12.133,12.133,0,0,1,0,2.385c-.145,1.36.48,1.723,1.735,1.678,2.037-.073,4.078-.009,6.118-.024,1.156-.008,2.082-.052,2.094,1.667C619.86,567.041,618.981,567.123,617.576,567.02Z" transform="translate(-503.438 -544.687)" fill="#fff"/>
      <path id="Path_30945" data-name="Path 30945" d="M315.055,545.951c1.656,4.416.269,8.35-3.393,9.747a14.529,14.529,0,0,1-5.307.548c-2.87,0-2.863,0-2.886,2.812-.012,1.442-.084,2.883-.068,4.324.01.889-.338,1.246-1.235,1.232-3.97-.059-3.415.423-3.433-3.239-.028-5.672.03-11.345-.032-17.016-.015-1.39.464-1.814,1.816-1.774,2.883.085,5.771,0,8.657.044a6.287,6.287,0,0,1,5.882,3.322m-11.632,1.134c.041,1.389.095,2.778.118,4.168.013.766.277,1.2,1.132,1.215a19.5,19.5,0,0,0,4.153-.332,2.6,2.6,0,0,0,2.033-2.149,2.7,2.7,0,0,0-.891-2.7C308.842,546.232,304.917,546,303.423,547.086Z" transform="translate(-298.701 -542.582)" fill="#fff"/>
      <path id="Path_30946" data-name="Path 30946" d="M692.523,557.966c0-3.678.035-7.207-.03-10.735-.023-1.238.407-1.663,1.632-1.62,2.531.09,5.089-.141,7.595.135,8.134.895,10.734,9.471,8.191,15.19a9.715,9.715,0,0,1-8.993,6.055c-2.33.122-4.672-.018-7.006.047-1.114.031-1.474-.367-1.441-1.469.075-2.483.041-4.969.052-7.6m3.374-3.419c-.029,2.532-.03,5.064-.1,7.594-.03,1.086.4,1.556,1.483,1.518,1.19-.042,2.385.021,3.574-.046,4-.225,6.654-3.176,6.637-7.322a6.887,6.887,0,0,0-6.747-7.233c-1.14-.051-2.285.014-3.425-.036-.994-.043-1.5.344-1.474,1.366C695.872,551.678,695.88,552.967,695.9,554.548Z" transform="translate(-574.886 -544.703)" fill="#fff"/>
      <path id="Path_30947" data-name="Path 30947" d="M464.666,548.5c-3.724,1.22-5.909,4.071-5.851,7.516a7.719,7.719,0,0,0,5.718,7.184,7.1,7.1,0,0,0,7.84-3.219c1.093-1.834,1.458-1.971,3.728-1.4.086,3.956-4.587,7.9-9.668,8.165-5.346.276-10.449-4.393-10.805-9.885a10.79,10.79,0,0,1,10.184-11.842c4.8-.348,9.753,3.417,10.184,7.738-1.862.818-2.685.528-3.729-1.138C470.523,548.844,467.89,548.074,464.666,548.5Z" transform="translate(-408.75 -544.281)" fill="#fff"/>
      <path id="Path_30948" data-name="Path 30948" d="M398.263,578.045c-4.315-.506-6.571-2.455-7.406-6.282-.821-3.76.486-7.438,3.439-9.113a8.561,8.561,0,0,1,9.321.11c2.989,1.915,3.961,4.89,3.465,8.288a7.772,7.772,0,0,1-6.021,6.807,11.659,11.659,0,0,1-2.8.19m4.282-7.026a21.044,21.044,0,0,0-.014-2.528,3.607,3.607,0,0,0-7.213-.008,12.793,12.793,0,0,0-.043,1.636c.049,2.389,1.3,4.09,3.222,4.4C400.239,574.8,401.74,573.576,402.545,571.019Z" transform="translate(-363.169 -555.729)" fill="#fff"/>
      <path id="Path_30949" data-name="Path 30949" d="M533.9,562.164a5.858,5.858,0,0,0,6.014.764,3.319,3.319,0,0,0,2.256-3.482c-.052-4.276.023-8.553-.036-12.829-.017-1.25.307-1.795,1.658-1.79,1.329,0,1.861.395,1.836,1.8-.072,4.076-.024,8.155-.026,12.232,0,5.481-4.355,8.94-9.794,7.786-4.31-.914-6.207-3.228-6.21-7.586,0-4.177.032-8.354-.018-12.531-.014-1.182.306-1.718,1.585-1.7,1.2.021,1.855.285,1.839,1.661-.05,4.276-.014,8.553-.011,12.829A3.466,3.466,0,0,0,533.9,562.164Z" transform="translate(-460.639 -544.157)" fill="#fff"/>
      <path id="Path_30950" data-name="Path 30950" d="M363.794,577.958c-4.318,0-3.759.6-3.8-3.58-.033-3.629.027-7.258-.027-10.886-.018-1.172.4-1.713,1.554-1.506,1.022.183,2.52-.75,2.866,1.329,1.422-1.425,2.967-2.043,4.884-1.379,1,.347,1.394.84.966,1.875a18.5,18.5,0,0,0-.606,1.84c-.225.761-.594,1-1.428.721-1.788-.589-2.928.146-3.339,2.043-.565,2.606-.194,5.252-.323,7.877C364.515,576.884,364.809,577.641,363.794,577.958Z" transform="translate(-341.674 -555.969)" fill="#fff"/>
    </g>
  </g>
</svg>
