<svg xmlns="http://www.w3.org/2000/svg" width="47.501" height="47.357" viewBox="0 0 47.501 47.357">
  <g id="Group_45" data-name="Group 45" transform="translate(-2.161 -2.334)">
    <g id="Group_46" data-name="Group 46">
      <path id="Path_35" data-name="Path 35" d="M17.835,42.463c0-3.679.007-7.357-.008-11.036a1.125,1.125,0,0,1,.693-1.155q11.064-5.511,22.109-11.059a1.423,1.423,0,0,1,1.421.012Q53,24.724,63.969,30.184a1.33,1.33,0,0,1,.858,1.364q-.031,10.935,0,21.869a1.27,1.27,0,0,1-.8,1.3Q53.008,60.2,42.01,65.726a1.385,1.385,0,0,1-1.377-.009Q29.584,60.17,18.518,54.656a1.1,1.1,0,0,1-.69-1.106c.014-3.7.007-7.391.007-11.087m24.3,21.348c.181-.079.3-.126.419-.184q10.128-5.063,20.26-10.118A.653.653,0,0,0,63.2,52.8q-.01-9.9,0-19.794v-.543c-.216.1-.368.162-.515.235Q52.646,37.71,42.609,42.719a.718.718,0,0,0-.485.753q.023,9.9.011,19.794Zm-8.1-24.057v.6c0,2.244,0,4.488,0,6.732,0,.438-.08.811-.531.99-.433.172-.738-.051-1.027-.343-.855-.863-1.708-1.728-2.583-2.57a1,1,0,0,0-.606-.255c-.758-.03-1.518-.01-2.277-.012-.821,0-1.08-.264-1.08-1.1,0-2.514-.016-5.028.014-7.541a.818.818,0,0,0-.555-.868c-1.8-.876-3.591-1.783-5.385-2.678-.161-.08-.327-.152-.533-.247-.009.161-.021.273-.021.386q0,10.021-.009,20.043a.586.586,0,0,0,.387.609q10.127,5.051,20.246,10.116c.126.063.262.106.417.167.008-.121.016-.188.016-.255q0-10.1.009-20.195a.551.551,0,0,0-.379-.565c-1.9-.942-3.8-1.894-5.7-2.841-.116-.058-.239-.1-.41-.173m.982-1.374c.216.116.36.2.507.271,1.791.9,3.588,1.786,5.371,2.7a.861.861,0,0,0,.882-.008q9.916-4.975,19.841-9.93c.159-.08.313-.171.529-.291-.186-.1-.309-.18-.438-.244-2.019-1.011-4.041-2.014-6.053-3.039a.788.788,0,0,0-.835.01c-2.8,1.507-5.621,2.994-8.433,4.487L35.017,38.381M20.463,31.122c1.968.985,3.828,1.893,5.663,2.848a1.165,1.165,0,0,0,1.241-.025q9.534-5.1,19.088-10.158c.149-.079.292-.172.5-.293-1.748-.872-3.414-1.683-5.057-2.537a1.068,1.068,0,0,0-1.108-.009q-9.52,4.785-19.056,9.539l-1.268.635m8.076,4.017c.216.117.359.2.507.273,1.234.62,2.475,1.226,3.7,1.864a.873.873,0,0,0,.924,0Q43.277,32.149,52.9,27.044c.158-.084.31-.182.528-.311C51.962,26,50.561,25.313,49.174,24.6a.785.785,0,0,0-.835.014c-2.746,1.474-5.5,2.93-8.253,4.392L28.539,35.139m3.746,10.167.13-.092c0-2.007.008-4.013-.016-6.02a.681.681,0,0,0-.351-.457c-1.362-.7-2.737-1.379-4.11-2.061-.11-.055-.23-.09-.35-.136v6.733c.7,0,1.378.022,2.049-.007a1.37,1.37,0,0,1,1.163.476c.48.534.988,1.044,1.485,1.564" transform="translate(-15.416 -16.456)" fill="#141212" stroke="#141212" stroke-width="0.5"/>
    </g>
  </g>
</svg>
