<svg xmlns="http://www.w3.org/2000/svg" width="31.303" height="31.29" viewBox="0 0 31.303 31.29">
  <g id="whatsapp" transform="translate(0.014)">
    <path id="BG_164" data-name="BG 164" d="M0,0H31.29V31.281H0Z" transform="translate(-0.002 0.005)" fill="none" opacity="0.58"/>
    <path id="Vector" d="M31.277,14.722A15.654,15.654,0,1,0,2.091,23.468L.7,28.646a1.559,1.559,0,0,0,1.925,1.909l5.1-1.408a15.581,15.581,0,0,0,7.919,2.143A15.888,15.888,0,0,0,31.277,14.722ZM23.3,21.465a3.733,3.733,0,0,1-.532.8,3.566,3.566,0,0,1-1.283.923,3.83,3.83,0,0,1-1.534.3A6.375,6.375,0,0,1,17.4,22.9,14.334,14.334,0,0,1,14.7,21.356a22.611,22.611,0,0,1-2.567-2.19A22.376,22.376,0,0,1,9.947,16.6a13.762,13.762,0,0,1-1.534-2.675,6.623,6.623,0,0,1-.563-2.566,4.086,4.086,0,0,1,.282-1.518,3.493,3.493,0,0,1,.908-1.314,2.262,2.262,0,0,1,1.627-.735,1.531,1.531,0,0,1,.642.141,1.3,1.3,0,0,1,.532.438l1.815,2.566a2.525,2.525,0,0,1,.313.548,1.142,1.142,0,0,1,.11.485,1.122,1.122,0,0,1-.172.563,2.753,2.753,0,0,1-.438.563l-.595.626a.4.4,0,0,0-.125.313.785.785,0,0,0,.031.188,1.08,1.08,0,0,1,.063.156,6.271,6.271,0,0,0,.735,1c.36.407.736.829,1.142,1.236.423.422.829.8,1.252,1.158a6.009,6.009,0,0,0,1.017.72c.047.016.094.047.141.063a.513.513,0,0,0,.532-.109l.595-.595a2.514,2.514,0,0,1,.563-.438,1.078,1.078,0,0,1,.563-.172,1.143,1.143,0,0,1,.485.11,2.848,2.848,0,0,1,.548.313l2.6,1.846a1.321,1.321,0,0,1,.438.5,1.635,1.635,0,0,1,.125.61C23.484,20.886,23.421,21.184,23.3,21.465Z" transform="translate(-0.014)" fill="#fff"/>
    <path id="Vector-2" data-name="Vector" d="M0,0H31.29V31.281H0Z" transform="translate(-0.002 0.005)" fill="none" opacity="0"/>
  </g>
</svg>
