<svg xmlns="http://www.w3.org/2000/svg" width="36.081" height="36.081" viewBox="0 0 36.081 36.081">
  <g id="vuesax_bulk_shield-tick" data-name="vuesax/bulk/shield-tick" transform="translate(-300 -188)">
    <g id="shield-tick" transform="translate(300 188)">
      <path id="Vector" d="M11.14.235l-8.269,3.1A4.8,4.8,0,0,0,0,7.5V19.674a4.992,4.992,0,0,0,1.774,3.548L10.043,29.4a4.689,4.689,0,0,0,5.307,0l8.269-6.179a5.02,5.02,0,0,0,1.774-3.548V7.5a4.775,4.775,0,0,0-2.871-4.149L14.252.25A5.114,5.114,0,0,0,11.14.235Z" transform="translate(5.337 2.862)" fill="#f192fa" opacity="0.4"/>
      <path id="Vector-2" data-name="Vector" d="M3.544,8.716a1.115,1.115,0,0,1-.8-.331L.327,5.965A1.127,1.127,0,1,1,1.921,4.371L3.544,5.995,9.212.327a1.127,1.127,0,1,1,1.594,1.594L4.341,8.385A1.115,1.115,0,0,1,3.544,8.716Z" transform="translate(12.482 12.677)" fill="#f192fa"/>
      <path id="Vector-3" data-name="Vector" d="M0,0H36.081V36.081H0Z" fill="none" opacity="0"/>
    </g>
  </g>
</svg>
