<svg xmlns="http://www.w3.org/2000/svg" width="36.016" height="36.016" viewBox="0 0 36.016 36.016">
  <g id="vuesax_bulk_receipt-text" data-name="vuesax/bulk/receipt-text" transform="translate(-108 -444)">
    <g id="receipt-text" transform="translate(108 444)">
      <path id="Vector" d="M0,0H36.016V36.016H0Z" fill="none" opacity="0"/>
      <path id="Vector-2" data-name="Vector" d="M9,6V9.634a3.609,3.609,0,0,1-3.872,3.872H0V3.016A3.029,3.029,0,0,1,3.031,0,5.995,5.995,0,0,1,9,6Z" transform="translate(24.01 3.001)" fill="#14b522"/>
      <path id="Vector-3" data-name="Vector" d="M0,7.5V28.512a1.5,1.5,0,0,0,2.4,1.2l2.566-1.921a1.512,1.512,0,0,1,1.981.15l2.491,2.506a1.513,1.513,0,0,0,2.131,0l2.521-2.521a1.488,1.488,0,0,1,1.951-.135l2.566,1.921a1.5,1.5,0,0,0,2.4-1.2V3a3.01,3.01,0,0,1,3-3H6C1.5,0,0,2.686,0,6Z" transform="translate(3.001 3.001)" fill="#14b522" opacity="0.4"/>
      <g id="Group" transform="translate(7.878 12.38)">
        <path id="Vector-4" data-name="Vector" d="M10.129,2.251h-9A1.134,1.134,0,0,1,0,1.125,1.134,1.134,0,0,1,1.125,0h9a1.134,1.134,0,0,1,1.125,1.125A1.134,1.134,0,0,1,10.129,2.251Z" fill="#14b522"/>
      </g>
      <g id="Group-2" data-name="Group" transform="translate(9.004 18.383)">
        <path id="Vector-5" data-name="Vector" d="M7.878,2.251H1.125A1.134,1.134,0,0,1,0,1.125,1.134,1.134,0,0,1,1.125,0H7.878A1.134,1.134,0,0,1,9,1.125,1.134,1.134,0,0,1,7.878,2.251Z" fill="#14b522"/>
      </g>
    </g>
  </g>
</svg>
