<svg id="note-2" xmlns="http://www.w3.org/2000/svg" width="20" height="20" viewBox="0 0 20 20">
  <path id="Vector" d="M12.243,6.615,11.426,10.1c-.7,3.008-2.083,4.225-4.683,3.975a8.761,8.761,0,0,1-1.35-.225l-1.4-.333C.518,12.69-.557,10.974.26,7.49L1.076,4a8.729,8.729,0,0,1,.617-1.833C2.668.149,4.326-.393,7.11.265L8.5.59C11.993,1.407,13.06,3.132,12.243,6.615Z" transform="translate(5.807 2.085)" fill="none" stroke="#707070" stroke-linecap="round" stroke-linejoin="round" stroke-width="1.5"/>
  <path id="Vector-2" data-name="Vector" d="M10.9,11.908a7.81,7.81,0,0,1-1.958.9l-1.317.433c-3.308,1.067-5.05.175-6.125-3.133L.428,6.817C-.638,3.508.245,1.758,3.553.692L4.87.258A8.52,8.52,0,0,1,5.845,0a8.729,8.729,0,0,0-.617,1.833L4.412,5.325c-.817,3.483.258,5.2,3.733,6.025l1.4.333A8.761,8.761,0,0,0,10.9,11.908Z" transform="translate(1.655 4.25)" fill="none" stroke="#707070" stroke-linecap="round" stroke-linejoin="round" stroke-width="1.5"/>
  <path id="Vector-3" data-name="Vector" d="M0,0,4.042,1.025" transform="translate(10.533 7.108)" fill="none" stroke="#707070" stroke-linecap="round" stroke-linejoin="round" stroke-width="1.5"/>
  <path id="Vector-4" data-name="Vector" d="M0,0,2.417.617" transform="translate(9.717 10.333)" fill="none" stroke="#707070" stroke-linecap="round" stroke-linejoin="round" stroke-width="1.5"/>
  <path id="Vector-5" data-name="Vector" d="M0,0H20V20H0Z" transform="translate(20 20) rotate(180)" fill="none" opacity="0"/>
</svg>
