<svg xmlns="http://www.w3.org/2000/svg" width="41.01" height="42.638" viewBox="0 0 41.01 42.638">
  <g id="Group_30" data-name="Group 30" transform="translate(-18.996 -12.265)">
    <g id="Group_31" data-name="Group 31" transform="translate(19.379 12.603)">
      <path id="Path_7" data-name="Path 7" d="M53.87,30.2a3.606,3.606,0,0,1,2.595,3.459c-.025,1.587-.961,2.743-2.782,3.4v.5q0,6.977,0,13.954a2.819,2.819,0,0,1-3.09,3.095H30.211a2.84,2.84,0,0,1-3.125-3.112q0-6.955,0-13.91v-.512a3.572,3.572,0,0,1-1.094-6.5l-4.236-7.341c-.183.1-.336.174-.483.261a.723.723,0,0,0-.308,1.163q1.338,2.331,2.687,4.655c.175.3.358.6.52.911a.7.7,0,0,1-.249.985.682.682,0,0,1-.945-.273c-1.128-1.939-2.264-3.873-3.351-5.835a2.033,2.033,0,0,1,.733-2.688c.206-.136.423-.255.676-.408-.1-.179-.193-.352-.289-.524a2.744,2.744,0,0,1,.239-3.259.365.365,0,0,0,.023-.495q-.462-.767-.9-1.55a1.4,1.4,0,0,1,.545-2.023q1.128-.668,2.27-1.311a1.4,1.4,0,0,1,2.049.565c.3.5.591,1,.872,1.514a.368.368,0,0,0,.439.235A2.8,2.8,0,0,1,29.3,16.691q2.914,5.079,5.851,10.144a1.262,1.262,0,0,0,.336.408V26.8c0-2.289-.014-4.579.015-6.867a1.834,1.834,0,0,1,.335-.991c1.243-1.709,2.52-3.393,3.787-5.084.547-.73.987-.728,1.537.005,1.242,1.656,2.477,3.317,3.727,4.966a1.826,1.826,0,0,1,.406,1.245,18.1,18.1,0,0,0,.065,2.411c.081-.128.167-.253.242-.385q1.9-3.292,3.8-6.585a2.845,2.845,0,0,1,4.2-1.132q2.233,1.288,4.462,2.583a2.785,2.785,0,0,1,1.093,4.042q-2.524,4.4-5.063,8.782c-.072.124-.139.251-.225.409M28.485,37.122v.485q0,6.954,0,13.909c0,1.157.527,1.688,1.677,1.688H50.629a1.44,1.44,0,0,0,1.654-1.658q0-6.976,0-13.952v-.47ZM40.372,31.5H33.2c-1.793,0-3.586-.01-5.378,0A2.1,2.1,0,1,0,27.9,35.7q12.505,0,25.01,0c.073,0,.146,0,.219-.006a2.133,2.133,0,0,0,1.853-1.447,2.093,2.093,0,0,0-2.058-2.745q-6.274-.01-12.549,0m6.878-9.46-1.044,1.815c.586.34,1.148.646,1.685.99a.9.9,0,0,1,.424.5.814.814,0,0,1-.227.678.964.964,0,0,1-.795.05c-.614-.284-1.187-.656-1.775-.993-.386.46-.16.966-.239,1.426A1.008,1.008,0,0,0,46,27.787a1.153,1.153,0,0,1,.333.207.694.694,0,0,1-.655,1.2,3.56,3.56,0,0,1-.364-.148V30.06a.454.454,0,0,0,.107.036c2.216,0,4.431.01,6.647,0a.567.567,0,0,0,.381-.267c.516-.862,1.012-1.736,1.514-2.607q2.008-3.482,4.015-6.965a1.363,1.363,0,0,0-.422-1.953q-2.459-1.464-4.954-2.864a1.327,1.327,0,0,0-1.725.387c-.422.624-.775,1.293-1.175,1.97.589.342,1.149.65,1.689.989.174.109.4.292.417.459a.909.909,0,0,1-.217.722.924.924,0,0,1-.79.059c-.614-.283-1.187-.655-1.8-1l-1.046,1.811c.58.335,1.133.651,1.683.973.449.263.592.642.393,1.014s-.621.465-1.093.2c-.556-.314-1.108-.637-1.686-.969M24.01,24.334c1.081,1.874,2.131,3.705,3.2,5.525a.6.6,0,0,0,.438.236c2.419.014,4.838.008,7.257.007h.513l-5.35-9.267-6.058,3.5m12.907-3.446v9.193h6.945v-9.2a7.735,7.735,0,0,1-6.945,0m-7.548-1.266c-.5-.862-.954-1.69-1.451-2.491a1.337,1.337,0,0,0-1.8-.468q-1.887,1.051-3.741,2.16a1.277,1.277,0,0,0-.565,1.594c.446.923.983,1.8,1.488,2.712l6.072-3.506m9.092-1.882L37.219,19.4c1.682,1.2,4.879,1.187,6.328-.015l-1.23-1.638a4.309,4.309,0,0,1-3.855,0M23.7,14.005,21.28,15.4l1.049,1.814,2.421-1.4L23.7,14.005m15.635,2.567a2.694,2.694,0,0,0,2.1-.009l-1.047-1.392-1.053,1.4" transform="translate(-19.379 -12.603)" fill="#141212" stroke="#141212" stroke-width="0.6"/>
      <path id="Path_17" data-name="Path 17" d="M130.33,246.207q3.389,0,6.777,0a2.1,2.1,0,0,1,2.287,2.283c0,.86.008,1.72,0,2.58a2.073,2.073,0,0,1-2.126,2.133q-6.974.012-13.948,0A2.084,2.084,0,0,1,121.2,251.1c-.016-.933-.018-1.866,0-2.8a2.087,2.087,0,0,1,2.133-2.089c2.332-.009,4.664,0,7,0m-.041,1.4h-6.736c-.735,0-.955.225-.956.973,0,.773,0,1.546,0,2.319,0,.659.243.907.89.908q6.8,0,13.6,0c.665,0,.9-.232.9-.886q.005-1.2,0-2.406c0-.683-.23-.906-.925-.907q-3.39,0-6.78,0" transform="translate(-109.291 -218.907)" fill="#141212" stroke="#141212" stroke-width="0.6"/>
      <path id="Path_18" data-name="Path 18" d="M162.1,325.493q-1.988,0-3.977,0c-.551,0-.878-.258-.887-.686-.01-.444.325-.712.9-.712q4,0,8,0c.56,0,.875.249.883.685s-.319.712-.9.713q-2.01,0-4.021,0" transform="translate(-141.13 -287.693)" fill="#141212" stroke="#141212" stroke-width="0.6"/>
    </g>
  </g>
</svg>
