<svg xmlns="http://www.w3.org/2000/svg" width="40.82" height="40.757" viewBox="0 0 40.82 40.757">
  <g id="Group_36" data-name="Group 36" transform="translate(0.3 -0.45)">
    <g id="Group_37" data-name="Group 37" transform="translate(0 0.752)">
      <path id="Path_25" data-name="Path 25" d="M0,34.867c.059-.24.109-.482.179-.718A4.747,4.747,0,0,1,1.71,31.83c1.187-1,2.39-1.993,3.541-3.038a14.69,14.69,0,0,0,4.07-6.322c.178-.532.362-1.063.51-1.6a.494.494,0,0,0-.12-.412,1.513,1.513,0,0,1-.5-1.521q.732-3.527,1.47-7.053A3.551,3.551,0,0,1,14.8,8.961,10.166,10.166,0,0,0,25.984,1.968a1.479,1.479,0,0,1,2.452-.852,23.428,23.428,0,0,1,5.547,4.747A10.143,10.143,0,0,1,35.96,9.525c.038.124.08.246.131.4a1.672,1.672,0,0,1,1.994.754c.528.681,1.116,1.315,1.666,1.98a1.46,1.46,0,0,1-.2,2.211q-4.689,3.989-9.385,7.968a1.5,1.5,0,0,1-2.226-.092c-.735.719-1.519,1.4-2.194,2.167-1.015,1.159-1.933,2.4-2.931,3.577A39.3,39.3,0,0,1,9.988,38.235,40.43,40.43,0,0,1,3.5,40.75c-.149.044-.293.1-.439.156H2.432a3.029,3.029,0,0,1-.656-.4,14.739,14.739,0,0,1-1.12-1.31,1.353,1.353,0,0,1-.181-1.305.608.608,0,0,0,.05-.332C.362,37.022.177,36.495,0,35.965v-1.1m10.791-16.9a8.166,8.166,0,0,1-.211.947c-.125.36.009.532.316.707.794.451,1.581.919,2.345,1.419a1.229,1.229,0,0,0,1.452.027,20.881,20.881,0,0,1,4.459-1.987,12.931,12.931,0,0,1,6.412-.535.714.714,0,0,0,.5-.184c2.824-2.387,5.635-4.788,8.464-7.169a.738.738,0,0,0,.28-.837,8.4,8.4,0,0,0-1.551-3.222,20.7,20.7,0,0,0-5.721-5,.844.844,0,0,0-.17-.053c-.054.15-.1.282-.148.415a11.456,11.456,0,0,1-12.541,7.8A2.326,2.326,0,0,0,11.925,12.8c.369.109.743.218,1.117.33.506.152.722.467.6.88-.109.382-.474.537-.956.4l-1.1-.3-.517,2.48c.027.033.033.049.043.052.373.115.748.225,1.121.343a.673.673,0,1,1-.367,1.284c-.35-.093-.7-.193-1.078-.3m-9.057,18.9c.1-.031.216-.06.325-.1a40.291,40.291,0,0,0,7.814-3.494,35.847,35.847,0,0,0,10.353-8.64,46.469,46.469,0,0,1,4.162-4.791c.022-.021.023-.065.074-.218-.992.074-1.934.081-2.854.226a18,18,0,0,0-6.262,2.375,2.44,2.44,0,0,1-2.8-.056c-.453-.3-.93-.565-1.437-.87-.084.256-.158.46-.219.669a17.135,17.135,0,0,1-5.974,8.893c-.85.673-1.667,1.389-2.48,2.107a3.154,3.154,0,0,0-.706,3.894M1.66,38.329c.3.351.559.626.781.928a.535.535,0,0,0,.689.219,40.883,40.883,0,0,0,9.7-4.316,35.138,35.138,0,0,0,9.4-8.085,42.9,42.9,0,0,1,4.706-5.3.952.952,0,0,0,.1-.129L25.893,20.3a35.239,35.239,0,0,0-3.685,3.97,47.86,47.86,0,0,1-3.319,3.859A41.634,41.634,0,0,1,3.29,37.77c-.513.182-1.03.353-1.63.559M36.685,11.115l-9.778,8.305c.673.792,1.318,1.53,1.937,2.288.2.247.332.23.561.035q4.574-3.9,9.16-7.792c.1-.082.183-.173.295-.279l-2.174-2.558" transform="translate(0 -0.752)" fill="#141212" stroke="#141212" stroke-width="0.6"/>
    </g>
  </g>
</svg>
