<svg xmlns="http://www.w3.org/2000/svg" width="46.679" height="26.926" viewBox="0 0 46.679 26.926">
  <g id="Group_39" data-name="Group 39" transform="translate(0.3 0.308)">
    <g id="Group_40" data-name="Group 40">
      <path id="Path_26" data-name="Path 26" d="M46.047,11.418A2.778,2.778,0,0,0,43.34,8.705c-.25-.014-.5,0-.805,0,0-.61,0-1.16,0-1.71a4.138,4.138,0,0,0-1.458-3.3A4.189,4.189,0,0,0,38.02,2.76a.578.578,0,0,1-.686-.443A3.658,3.658,0,0,0,33.808.01a3.711,3.711,0,0,0-3.584,3.854c-.009,1.3,0,2.609,0,3.913V9.819H15.838c0-1.725.005-3.418,0-5.111a12.055,12.055,0,0,0-.07-1.614,3.677,3.677,0,0,0-7.011-.851.685.685,0,0,1-.814.52,4.06,4.06,0,0,0-2.788.8A4.114,4.114,0,0,0,3.527,7c0,.549,0,1.1,0,1.69a3.1,3.1,0,0,0-.545,0,7.31,7.31,0,0,0-1.466.345A2.891,2.891,0,0,0,0,11.053v4.138c.037.1.08.19.111.287a2.822,2.822,0,0,0,2.742,2.06c.206.006.412,0,.673,0,0,.6,0,1.146,0,1.7a4.261,4.261,0,0,0,.828,2.65,4.1,4.1,0,0,0,3.714,1.6.554.554,0,0,1,.649.43,3.693,3.693,0,0,0,7.116-1.472c.015-1.844,0-3.688,0-5.532v-.517h.593c3.763,0,9.78,0,13.542,0,.083,0,.167,0,.25,0q0,2.88,0,5.76a6.76,6.76,0,0,0,.03.763,3.712,3.712,0,0,0,2.968,3.253,3.573,3.573,0,0,0,4.006-2.036.951.951,0,0,1,1.1-.65,3.934,3.934,0,0,0,3.39-1.613,4.257,4.257,0,0,0,.815-2.655c0-.547,0-1.095,0-1.675.3,0,.519.007.741,0a2.788,2.788,0,0,0,2.769-2.7c.046-1.137.043-2.279,0-3.417M3.5,16.251a6.376,6.376,0,0,1-1.3-.222,1.359,1.359,0,0,1-.844-1.365c-.006-.974,0-1.948,0-2.922a1.51,1.51,0,0,1,1.723-1.7c.132,0,.264.011.424.019Zm4.939,5.841c-1.57.209-2.7-.276-3.248-1.437a3.171,3.171,0,0,1-.3-1.3Q4.856,13.132,4.883,6.9A2.765,2.765,0,0,1,8.436,4.173c0,.431,0,.869,0,1.308v.033a1.944,1.944,0,0,0,0,.448V6.6c0,4.177,0,11.1,0,14.98Zm6.05.3a2.345,2.345,0,0,1-3.537,2.159A2.172,2.172,0,0,1,9.8,22.685c-.031-.823-.018-1.648-.018-2.473,0-3.422,0-9.852,0-13.614V5.591c.007-.654-.011-1.308.014-1.961a2.339,2.339,0,0,1,4.624-.43,2.972,2.972,0,0,1,.063.668q0,9.263,0,18.526M29.98,15.044c-3.778,0-9.809,0-13.587,0h-.518v-3.8H30.223V11.8q0,1.623,0,3.245c-.081,0-.163-.006-.243-.006m6.3-1.921q0,4.608,0,9.216a2.353,2.353,0,0,1-4.684.447,4.452,4.452,0,0,1-.016-.449q0-9.216,0-18.433a2.349,2.349,0,0,1,2.063-2.521A2.322,2.322,0,0,1,36.25,3.458c.042.627.024,1.258.024,1.887q0,3.889,0,7.778m4.91,5.973a2.806,2.806,0,0,1-3.529,3V4.156a2.79,2.79,0,0,1,3.41,1.919,4.24,4.24,0,0,1,.115,1.066q.011,5.978,0,11.955M42.57,16.16V10.092c1.426-.222,2.141.377,2.141,1.777,0,.794-.043,1.591.01,2.382.09,1.342-.663,2.131-2.151,1.91" transform="translate(0 -0.001)" fill="#141212" stroke="#141212" stroke-width="0.6"/>
    </g>
  </g>
</svg>
