<svg id="star" xmlns="http://www.w3.org/2000/svg" width="11.157" height="11.157" viewBox="0 0 11.157 11.157">
  <path id="Vector" d="M5.707.7l.856,1.717a1.058,1.058,0,0,0,.691.512l1.552.258c.993.166,1.226.888.511,1.6L8.111,5.995a1.06,1.06,0,0,0-.253.883l.345,1.5c.272,1.185-.355,1.643-1.4,1.024L5.347,8.535a1.05,1.05,0,0,0-.963,0L2.929,9.4c-1.041.619-1.674.156-1.4-1.024l.345-1.5a1.06,1.06,0,0,0-.253-.883L.413,4.785c-.71-.712-.482-1.434.511-1.6l1.552-.258a1.06,1.06,0,0,0,.686-.512L4.019.7C4.486-.233,5.245-.233,5.707.7Z" transform="translate(0.713 0.74)" fill="#ff3c2b"/>
  <path id="Vector-2" data-name="Vector" d="M0,0H11.157V11.157H0Z" fill="#ff3c2b" opacity="0"/>
</svg>
