<svg xmlns="http://www.w3.org/2000/svg" width="40.115" height="39.875" viewBox="0 0 40.115 39.875">
  <g id="Group_27" data-name="Group 27" transform="translate(0.37 0.102)">
    <g id="Group_28" data-name="Group 28" transform="translate(-0.063 0.199)">
      <path id="Path_2" data-name="Path 2" d="M-.012,17.507a6.27,6.27,0,0,1,1.955-2.178,1.459,1.459,0,0,1,1.891.107l.855-.882c-.025-.043-.062-.106-.1-.169a1.537,1.537,0,0,1,.231-2c1.767-1.774,3.529-3.553,5.317-5.305a8.907,8.907,0,0,1,4.532-2.546,6.3,6.3,0,0,1,5.39,1.433.888.888,0,0,1,.317.968,1,1,0,0,1-.82.719,13.389,13.389,0,0,0-2.168.629,2.48,2.48,0,0,0-1.561,3.153,3.407,3.407,0,0,1-.92,3.152c2.279,2.107,4.5,4.168,6.848,6.337a2.715,2.715,0,0,1,.327-.349q2.215-2.224,4.438-4.441c.082-.082.16-.168.248-.242a.57.57,0,0,1,.818.793c-.073.089-.159.167-.241.249q-2.219,2.22-4.443,4.437c-.1.1-.2.173-.343.3l.143.133c.911.843,1.8,1.652,2.739,2.521q6.5,6.014,13.009,12.028a2.6,2.6,0,0,1,.081,4.021c-.624.629-1.246,1.259-1.881,1.877a2.59,2.59,0,0,1-3.94-.108Q25.5,34.353,18.3,26.56c-.086-.093-.16-.2-.254-.312-.143.135-.247.227-.344.324q-2.058,2.055-4.115,4.111a1.654,1.654,0,0,1-.317.278.566.566,0,0,1-.765-.784,1.855,1.855,0,0,1,.281-.315q2.069-2.071,4.142-4.138a2.2,2.2,0,0,1,.327-.293c-2.169-2.345-4.222-4.562-6.333-6.845a1.6,1.6,0,0,1-2.287-.075l-.856.876c.054.064.122.137.18.216a1.545,1.545,0,0,1-.112,2.013c-.412.44-.84.867-1.278,1.281a1.518,1.518,0,0,1-2.183,0Q2.4,20.937.443,18.942A1.66,1.66,0,0,1-.012,18.2a1.224,1.224,0,0,1,0-.693M25.379,32.521q4.124,4.461,8.275,8.945a1.408,1.408,0,0,0,2.093.053c.658-.63,1.294-1.283,1.937-1.929a1.479,1.479,0,0,0-.041-2.419q-4.266-3.949-8.536-7.894c-.092-.085-.191-.162-.264-.223l-3.464,3.467M18.9,6.528A5.126,5.126,0,0,0,15.193,5.6a7.247,7.247,0,0,0-4.058,2.121C9.3,9.5,7.509,11.32,5.7,13.124c-.312.312-.308.492.01.811q1.834,1.84,3.674,3.675c.362.361.491.361.855,0,1.244-1.242,2.479-2.493,3.732-3.725a2.5,2.5,0,0,0,.712-2.385,4.936,4.936,0,0,1,.01-1.82,3.6,3.6,0,0,1,2.355-2.5c.582-.253,1.2-.422,1.848-.645m-4.76,8.914-2.364,2.367L22.85,29.785l3.27-3.269L14.139,15.442m-11.353.726a1.6,1.6,0,0,0-.305.183q-.606.589-1.2,1.195a.408.408,0,0,0,.018.641Q3.217,20.1,5.134,22.021a.436.436,0,0,0,.7-.005L6.949,20.9a.439.439,0,0,0,.006-.7q-1.916-1.916-3.836-3.829a1.683,1.683,0,0,0-.332-.2M24.5,31.572l3.408-3.4-.824-.765-3.345,3.338.761.827M4.726,16.254l2.205,2.208.815-.774L5.521,15.464l-.795.791" transform="translate(0.063 -4.107)" fill="#141212" stroke="#141212" stroke-width="0.6"/>
      <path id="Path_3" data-name="Path 3" d="M212.3,7.9a2.818,2.818,0,0,1,1.009-1.985c.728-.679,1.415-1.4,2.116-2.108a1.321,1.321,0,0,0,.262-.332.45.45,0,0,0-.315-.684,1.9,1.9,0,0,0-1.532.2c-.879.519-1.772,1.018-2.619,1.585a2.994,2.994,0,0,0-1.4,3.248,4.779,4.779,0,0,1-1.506,4.738c-1.089,1.03-2.126,2.117-3.19,3.174-.335.333-.749.336-.963.008a.6.6,0,0,1,.147-.829c1.11-1.1,2.2-2.224,3.323-3.315a3.47,3.47,0,0,0,1.057-3.449,4.312,4.312,0,0,1,1.983-4.611c.852-.538,1.721-1.049,2.591-1.558a3.032,3.032,0,0,1,2.356-.33,1.644,1.644,0,0,1,.869,2.7c-.1.12-.211.228-.32.337-.731.732-1.465,1.461-2.193,2.2a1.637,1.637,0,0,0-.039,1.827c.5.524,1.014,1.034,1.537,1.535a1.474,1.474,0,0,0,1.714-.106c.79-.783,1.552-1.6,2.372-2.345a2.34,2.34,0,0,1,1.1-.569,1.517,1.517,0,0,1,1.8,1.294,3.155,3.155,0,0,1-.355,2.32c-.509.869-1.019,1.74-1.558,2.59a4.325,4.325,0,0,1-4.653,1.968,3.382,3.382,0,0,0-3.35,1.016c-.99,1.021-2.008,2.015-3.014,3.021-.082.082-.161.169-.25.243a.572.572,0,0,1-.8.01.561.561,0,0,1,0-.832c.382-.4.783-.79,1.176-1.183.741-.741,1.475-1.487,2.223-2.221a4.325,4.325,0,0,1,4.091-1.213,3.267,3.267,0,0,0,3.747-1.655c.454-.752.908-1.5,1.356-2.26a1.946,1.946,0,0,0,.253-1.525c-.121-.474-.476-.6-.864-.285a2.838,2.838,0,0,0-.224.215c-.75.75-1.5,1.5-2.25,2.249a2.531,2.531,0,0,1-3.438-.009c-.376-.373-.731-.772-1.129-1.119-.628-.548-1.242-1.143-1.127-1.96" transform="translate(-183.136 -1.557)" fill="#141212" stroke="#000" stroke-width="0.6"/>
      <path id="Path_4" data-name="Path 4" d="M.786,213.893A6.92,6.92,0,0,1,6.71,207.04q1.191-.151,2.373-.365a4.239,4.239,0,0,0,2.271-1.253q1.53-1.542,3.071-3.073c.091-.091.183-.237.287-.248a1.2,1.2,0,0,1,.673.055.471.471,0,0,1,.134.684,1.633,1.633,0,0,1-.272.324c-.885.889-1.817,1.735-2.65,2.67a6.7,6.7,0,0,1-4.782,2.228,6.163,6.163,0,0,0-4.325,1.892,5.8,5.8,0,0,0,4.648,9.729,5.668,5.668,0,0,0,5.077-3.926,24.1,24.1,0,0,0,.512-3.012,5.589,5.589,0,0,1,1.632-3.225c1.01-1,2.012-2.011,3.019-3.015a1.263,1.263,0,0,1,.234-.2.571.571,0,0,1,.775.8,1.826,1.826,0,0,1-.258.287c-.84.842-1.644,1.725-2.532,2.514a5.705,5.705,0,0,0-1.855,3.923,12.845,12.845,0,0,1-.35,2.059A6.95,6.95,0,0,1,.786,213.893" transform="translate(-0.653 -181.574)" fill="#141212" stroke="#141212" stroke-width="0.6"/>
      <path id="Path_5" data-name="Path 5" d="M39.886,284.4c0,.245,0,.491,0,.736a1.689,1.689,0,0,1-.506,1.258c-.372.377-.75.748-1.123,1.125a1.707,1.707,0,0,1-1.253.519c-.517,0-1.034,0-1.551,0a1.761,1.761,0,0,1-1.315-.559c-.342-.352-.691-.7-1.042-1.042a1.706,1.706,0,0,1-.542-1.244c0-.555-.006-1.111,0-1.667a1.666,1.666,0,0,1,.53-1.208c.37-.361.733-.729,1.1-1.1a1.7,1.7,0,0,1,1.252-.521c.517,0,1.034,0,1.551,0a1.738,1.738,0,0,1,1.287.534c.31.311.61.633.935.929a1.937,1.937,0,0,1,.681,1.654c-.014.193,0,.387,0,.581m-1.2-.032a1.569,1.569,0,0,0-.7-1.776.136.136,0,0,1-.027-.027,1.9,1.9,0,0,0-1.71-.731,2.332,2.332,0,0,0-1.858.773,2.537,2.537,0,0,0,1.786,4.3,2.265,2.265,0,0,0,1.83-.75,1.756,1.756,0,0,0,.676-1.791" transform="translate(-29.126 -252.045)" fill="#141212" stroke="#141212" stroke-width="0.6"/>
    </g>
  </g>
</svg>
