<svg xmlns="http://www.w3.org/2000/svg" width="39" height="39" viewBox="0 0 39 39">
  <g id="vuesax_outline_car" data-name="vuesax/outline/car" transform="translate(-172 -188)">
    <g id="car" transform="translate(172 188)">
      <path id="Vector" d="M27.214,15.714h-26a1.178,1.178,0,0,1-.942-.455,1.216,1.216,0,0,1-.244-1.024L1.865,5.46C2.466,2.616,3.685,0,8.511,0H19.935c4.826,0,6.045,2.632,6.646,5.46l1.836,8.791a1.23,1.23,0,0,1-.244,1.024A1.271,1.271,0,0,1,27.214,15.714ZM2.71,13.276H25.7L24.176,5.964c-.455-2.129-.991-3.526-4.257-3.526H8.511c-3.266,0-3.8,1.4-4.257,3.526Z" transform="translate(5.285 3.38)" fill="#292d32"/>
      <path id="Vector-2" data-name="Vector" d="M30.406,20.312H27.351c-2.632,0-3.136-1.511-3.461-2.5l-.325-.975c-.423-1.235-.471-1.4-1.934-1.4h-8.32c-1.462,0-1.56.276-1.934,1.4l-.325.975c-.341,1.007-.829,2.5-3.461,2.5H4.536a4.586,4.586,0,0,1-3.38-1.479,4.435,4.435,0,0,1-1.137-3.4l.91-9.9C1.173,2.86,1.888,0,7.1,0H27.839c5.216,0,5.915,2.86,6.175,5.541l.91,9.9a4.435,4.435,0,0,1-1.137,3.4A4.586,4.586,0,0,1,30.406,20.312ZM13.311,13h8.32c2.957,0,3.656,1.316,4.241,3.039l.341,1.007c.276.829.276.845,1.154.845h3.055A2.138,2.138,0,0,0,32,17.209a1.963,1.963,0,0,0,.52-1.527l-.91-9.9c-.211-2.194-.471-3.331-3.737-3.331H7.1c-3.282,0-3.542,1.137-3.737,3.331l-.91,9.9a1.963,1.963,0,0,0,.52,1.527,2.112,2.112,0,0,0,1.576.682H7.608c.877,0,.877-.016,1.154-.829l.325-.991C9.493,14.771,10.094,13,13.311,13Z" transform="translate(2.028 16.656)" fill="#292d32"/>
      <path id="Vector-3" data-name="Vector" d="M2.844,2.437H1.219A1.228,1.228,0,0,1,0,1.219,1.228,1.228,0,0,1,1.219,0H2.844A1.228,1.228,0,0,1,4.062,1.219,1.228,1.228,0,0,1,2.844,2.437Z" transform="translate(3.656 11.781)" fill="#292d32"/>
      <path id="Vector-4" data-name="Vector" d="M2.844,2.437H1.219A1.228,1.228,0,0,1,0,1.219,1.228,1.228,0,0,1,1.219,0H2.844A1.228,1.228,0,0,1,4.062,1.219,1.228,1.228,0,0,1,2.844,2.437Z" transform="translate(31.281 11.781)" fill="#292d32"/>
      <path id="Vector-5" data-name="Vector" d="M1.219,5.687A1.228,1.228,0,0,1,0,4.469V1.219A1.228,1.228,0,0,1,1.219,0,1.228,1.228,0,0,1,2.437,1.219v3.25A1.228,1.228,0,0,1,1.219,5.687Z" transform="translate(18.281 3.656)" fill="#292d32"/>
      <path id="Vector-6" data-name="Vector" d="M6.094,2.437H1.219A1.228,1.228,0,0,1,0,1.219,1.228,1.228,0,0,1,1.219,0H6.094A1.228,1.228,0,0,1,7.312,1.219,1.228,1.228,0,0,1,6.094,2.437Z" transform="translate(15.843 6.906)" fill="#292d32"/>
      <path id="Vector-7" data-name="Vector" d="M6.094,2.437H1.219A1.228,1.228,0,0,1,0,1.219,1.228,1.228,0,0,1,1.219,0H6.094A1.228,1.228,0,0,1,7.312,1.219,1.228,1.228,0,0,1,6.094,2.437Z" transform="translate(8.531 23.156)" fill="#292d32"/>
      <path id="Vector-8" data-name="Vector" d="M6.094,2.437H1.219A1.228,1.228,0,0,1,0,1.219,1.228,1.228,0,0,1,1.219,0H6.094A1.228,1.228,0,0,1,7.312,1.219,1.228,1.228,0,0,1,6.094,2.437Z" transform="translate(23.156 23.156)" fill="#292d32"/>
      <path id="Vector-9" data-name="Vector" d="M0,0H39V39H0Z" fill="none" opacity="0"/>
    </g>
  </g>
</svg>
